<?xml version="1.0" encoding="UTF-8" standalone="no"?>
<svg
   version="1.1"
   width="1536"
   height="1024"
   viewBox="0 0 1536 1024"
   id="svg4"
   sodipodi:docname="calico-final.svg"
   inkscape:version="1.4.3 (0d15f75, 2025-12-25)"
   xmlns:inkscape="http://www.inkscape.org/namespaces/inkscape"
   xmlns:sodipodi="http://sodipodi.sourceforge.net/DTD/sodipodi-0.dtd"
   xmlns="http://www.w3.org/2000/svg"
   xmlns:svg="http://www.w3.org/2000/svg">
  <sodipodi:namedview
     id="namedview4"
     pagecolor="#ffffff"
     bordercolor="#000000"
     borderopacity="0.25"
     inkscape:showpageshadow="2"
     inkscape:pageopacity="0.0"
     inkscape:pagecheckerboard="0"
     inkscape:deskcolor="#d1d1d1"
     inkscape:zoom="11.313708"
     inkscape:cx="566.30414"
     inkscape:cy="742.5947"
     inkscape:window-width="3440"
     inkscape:window-height="1351"
     inkscape:window-x="-9"
     inkscape:window-y="-9"
     inkscape:window-maximized="1"
     inkscape:current-layer="g8" />
  <defs
     id="defs1">
    <style
       id="style1">
    .breathe {
      transform-origin: 768px 960px;
      animation: breathe 3.8s infinite ease-in-out;
    }
    @keyframes breathe {
      0%, 100% { transform: scale(1, 1) translateY(0); }
      50% { transform: scale(1.02, 0.98) translateY(0.3px); }
    }
    #eye-sockets, #eye-pupils, #eye-highlights {
      transform-origin: 725px 495px;
      animation: blink 5s infinite ease-in-out;
    }
    @keyframes blink {
      0%, 7%, 100% { transform: scaleY(1); }
      3.5% { transform: scaleY(0.05); }
    }
    .tail-sway {
      transform-origin: 1200px 620px;
      animation: tail-sway 4s infinite ease-in-out;
    }
    @keyframes tail-sway {
      0%, 100% { transform: rotate(0deg); }
      35% { transform: rotate(6deg); }
      75% { transform: rotate(-4deg); }
    }
  </style>
  </defs>
  <g
     class="breathe"
     id="g8">
    <ellipse
       style="fill:#808080;stroke-width:1.02723;opacity:0.15"
       id="shadowout"
       cx="848.5"
       cy="871"
       rx="487.5"
       ry="88" />
    <ellipse
       style="opacity:0.4;fill:#4d4d4d;stroke-width:1.03235"
       id="shadowin"
       cx="868.5"
       cy="874.5"
       rx="421.5"
       ry="59.5" />
    <path
       id="base-body"
       style="display:inline"
       d="m 561.92141,364.82961 -10.25252,20.15126 -12.02163,21.56734 -8.13134,39.95069 -67.88356,54.80195 -59.04271,24.74835 -70.35723,26.16369 -126.57226,12.01953 -96.16602,4.24414 -68.589843,-2.12304 -74.246094,-12.01954 -37.476562,0.70704 -26.869141,4.94921 -0.0332,0.30274 c 0.386835,0.17282 25.772943,5.34548 26.160156,5.51758 -0.51,1.36 -26.000234,-2.31977 -26.490234,-1.00977 -0.096,0.31718 -0.188132,0.63547 -0.277344,0.95508 -5.54e-4,0.002 -0.0014,0.004 -0.002,0.006 l 16.410736,16.41314 c 0.05648,2.02168 4.182759,2.23312 4.400237,4.2829 l 0.728136,2.3041 2.22461,20.3125 12.154297,30.0332 5.533203,9.06446 19.859375,36.21874 12.871093,36.11329 23.3339849,19.79882 23.3339841,6.36329 24.042969,3.53515 19.091797,-2.12109 17.677734,-4.94922 11.3125,-7.07031 7.072266,-10.60743 4.94922,-15.55664 27.57617,4.24219 16.26367,3.53711 16.9707,3.53516 9.19336,9.89844 9.19141,10.60742 12.02148,10.60742 16.97071,4.94922 14.14062,2.12109 14.14258,-0.70703 18.38476,-2.82812 21.2129,-6.36524 18.38476,-10.60547 9.19336,-5.65625 11.31445,-3.53711 19.0918,0.70703 h 30.4043 l 7.77929,-2.12109 19.79883,-0.70703 10.60547,12.72851 33.94141,12.02149 30.40625,-2.83008 33.9414,-3.53516 19.0918,-13.43554 21.21289,-9.19141 39.59766,-14.84961 37.47656,-24.74804 21.91992,-19.0918 12.02149,-26.16406 10.60742,-26.16211 15.55468,-40.30469 v -29.6995 l -7.07031,-34.64844 -8.48437,-19.09179 -14.14258,-38.89063 -12.72852,-21.21289 -6.36328,-6.36328 -25.45703,-21.92188 -58.68902,-27.92936 z"
       fill="#fcf4e3"
       sodipodi:nodetypes="ccccccccccccccccscccccccccccccccccccccccccccccccccccccccccccccccccccccccc"
       transform="translate(600.5625,154.1875)" />
    <g
       class="tail-sway"
       id="g1">
      <path
         id="outline-tail"
         d="m 750.51953,289.51758 c -20.32174,0.19428 -37.35008,6.57297 -54.08008,20.29297 -16.49,16.76 -20.43953,36.07867 -22.51953,58.63867 -0.8,9.08 -1.41047,17.71133 -4.48047,26.36133 -5.86048,13.19093 -13.32024,22.68654 -26.62109,28.42578 L 605,445 l 25,25 26.69727,-19.875 10.80664,27.91992 8.10547,21.61524 7.20507,22.51562 -24.74001,30.26531 0.15384,13.36062 -0.99038,12.20755 c 0,0 38.94018,-13.90621 0.72249,15.85134 0,0 -2.80963,0.73559 15.51654,-17.6355 22.57381,-4.71199 58.07967,-21.2834 76.95276,-34.13526 43,-30.63 69.85976,-78.10898 78.75976,-129.70898 4.79,-33.3 1.68,-66.77031 -18.75,-94.57031 -13.96,-15.58 -30.36,-25.08 -51,-28 -3.04625,-0.22125 -6.01681,-0.32073 -8.91992,-0.29297 z"
         transform="translate(600.5625,154.1875)"
         fill="#86432d"
         sodipodi:nodetypes="scccccccccccccccccccs" />
    </g>
    <g
       class="tail-sway"
       id="g3">
      <path
         id="tail-outer"
         d="M0 0 C14.25 11.97 19.62 28.97 21.53 46.97 C24.3 88.64 11.78 134.43 -15 167 C-19.87 172.47 -24.9 177.75 -30 183 C-31.46 184.57 -32.93 186.13 -34.44 187.75 C-49.46 201.74 -81.12 227 -103 227 C-103.05 226.17 -103.05 226.17 -103.33 221.98 C-105.68 188.77 -111.51 152.87 -133 126 C-133 125.01 -133 124.02 -133 123 C-131.23 122.13 -129.45 121.27 -127.62 120.38 C-111.16 111.99 -102.66 98.14 -97 81 C-94.25 70.31 -92.95 60.37 -92.62 49.38 C-91.73 29.29 -86.98 13.79 -72 0 C-49.89 -15.48 -21.96 -15.95 0 0 Z "
         fill="#EDAF68"
         transform="translate(1388,472)" />
    </g>
    <g
       class="tail-sway"
       id="g4">
      <path
         id="tail-mid"
         d="m 1286.7711,561.63683 c 19.42,-0.79 39.92,11.65 54,24 6.29,5.87 11.31,11.79 16,19 0.45,0.69 0.45,0.69 2.75,4.19 3.01,6.44 4.03,12.82 5.25,19.81 0.41,1.65 0.83,3.3 1.25,5 0.75,4 0.75,4 -0.25,11 -2.81,3.69 -2.81,3.69 -7,8 -1.79,1.9 -3.59,3.79 -5.44,5.75 -15.04,14.88 -55.9204,44.75257 -78.5204,44.75257 -0.05,-0.83 -1.3237,-2.74049 -1.6037,-6.93049 -2.35,-33.21 -8.4984,-68.47317 -29.9884,-95.34317 0,0 7.5818,-5.79501 11.4299,-10.39624 12.2187,-9.43132 24.0926,-15.45267 32.1226,-28.83267 z"
         fill="#ecad66"
         sodipodi:nodetypes="cccccccccccccc" />
    </g>
    <g
       class="tail-sway"
       id="g5">
      <path
         id="tail-tip"
         d="M0 0 C16.78 11.84 22.94 23.59 27.56 43 C27.81 44.57 28.06 46.13 28.31 47.75 C28.62 49.69 28.93 51.63 29.25 53.62 C29.33 61.03 27.59 65.13 24.31 71.75 C23.73 72.94 23.15 74.12 22.55 75.35 C17.03 86.18 10.9 97.08 1.31 104.75 C1.21 102.83 1.11 100.91 1 98.94 C0.38 92.47 -0.8 86.94 -2.69 80.75 C-3.02 79.6 -3.02 79.6 -4.69 73.75 C-14.19 51.87 -33.84 36.81 -55.6 28.2 C-62.87 25.69 -70.08 23.9 -77.69 22.75 C-77.25 21.12 -76.82 19.49 -76.38 17.81 C-74.69 10.75 -74.69 10.75 -74.1 6.27 C-73.9 4.76 -73.7 3.25 -73.5 1.69 C-73.34 0.25 -73.18 -1.18 -73.02 -2.66 C-71.69 -6.25 -71.69 -6.25 -68.07 -8.12 C-66.63 -8.49 -65.18 -8.87 -63.69 -9.25 C-62.41 -9.64 -61.13 -10.02 -59.81 -10.42 C-39.58 -14.5 -17.72 -10.12 0 0 Z "
         fill="#FDF3DB"
         transform="translate(1366.6875,538.25)" />
    </g>
    <g
       class="ear-anim"
       id="g2">
      <path
         id="base-ear-left"
         style="display:inline"
         d="m -144.31641,-64.642578 c -11.25085,-0.165117 -21.70898,1.914062 -30.80273,7.023437 -22.74,17.61 -22.74141,17.61 -39.19141,96.5 -13.19,65.410001 -25.34,158.919691 13.75,217.929691 h 2 c -0.45651,1.10622 -0.90366,2.21508 -1.3457,3.32812 l 3.10156,0.7461 16.26367,-33.23438 30.40625,-39.59766 45.25391,-41.01367 68.589844,-44.54687 L 7.5488281,84.107422 69.775391,65.015625 79.164062,47.320312 c -3.90186,0.869567 -7.806448,1.711626 -11.724609,2.490235 -4,-2 -3.999765,-2.000781 -7.509765,-4.800781 C 40.759687,28.899766 20.74,14.03 0,0 -31.93125,-21.068125 -95.562725,-63.92707 -144.31641,-64.642578 Z"
         transform="translate(600.5625,154.1875)"
         fill="#fcf4e3" />
    </g>
    <g
       class="ear-anim"
       id="g6">
      <path
         id="outline-ear-left"
         d="M -144.31641 -64.642578 C -155.56726 -64.807695 -166.02539 -62.728516 -175.11914 -57.619141 C -197.85914 -40.009141 -197.86055 -40.009141 -214.31055 38.880859 C -227.50055 104.29086 -239.65055 197.80055 -200.56055 256.81055 L -198.56055 256.81055 C -199.046 257.98688 -199.5231 259.16752 -199.99219 260.35156 L -198.88867 260.99609 L -180.875 229.47461 L -169.2168 210.48828 C -170.09616 211.85101 -170.96162 213.22768 -171.81055 214.61914 C -175.19055 220.19914 -178.77055 225.52055 -182.56055 230.81055 C -189.88055 223.50055 -189.88 223.50055 -195.75 190.06055 C -196.03 188.28055 -196.30055 186.54055 -196.56055 184.81055 C -202.42055 149.14055 -201.5093 110.96938 -197.5293 75.109375 C -196.7193 69.019375 -196.72055 69.020547 -196.56055 67.810547 C -192.20055 34.460547 -186.72055 -15.249453 -163.56055 -41.189453 C -107.45055 -57.219453 -23.449453 2.18 17.810547 34.5 L 24.439453 39.810547 C 31.198957 44.987247 37.889729 49.74818 43.267578 56.320312 L 66.513672 49.345703 C 63.416061 47.790154 63.145076 47.574748 59.929688 45.009766 C 40.759687 28.899766 20.74 14.03 0 0 C -31.93125 -21.068125 -95.562725 -63.92707 -144.31641 -64.642578 z "
         transform="translate(600.5625,154.1875)"
         fill="#86432D" />
      <path
         id="outline-ear-right"
         d="M 555.43945,-38.189453 C 471.69945,-40.399453 377.65906,6.79 311.28906,53.75 c -3.27,2.37 -6.55961,4.720547 -9.84961,7.060547 -0.68621,0.171554 -1.25362,0.312937 -1.74609,0.425781 -0.35256,0.472119 -0.54102,0.72461 -0.54102,0.72461 l 33.32227,18.912109 22.51562,14.410156 37.82618,26.117187 50.43554,36.02539 52.23438,44.13086 30.62109,27.91797 13.22224,24.79721 13.18803,28.19141 19.18934,16.56802 c -0.0818,-0.37295 -7.54578,6.97281 -7.64258,6.5293 1.02,-1.4 9.385,-10.5111 10.375,-11.8711 4,-3.88 4,-3.87945 6.5,-7.93945 0.85,-1.68 1.67,-3.30945 2.5,-4.93945 37.19,-73.01 34.71078,-178.00039 16.30078,-255.900394 -0.44,-1.73 -0.87078,-3.419609 -1.30078,-5.099609 -3.65,-14.5600001 -8.18,-28.5900001 -15,-42 -7.88,-10.47 -15.19,-13.77 -28,-16 z"
         transform="translate(600.5625,154.1875)"
         fill="#86432d"
         sodipodi:nodetypes="cccccccccccccccccccccc" />
    </g>
    <path
       id="outline-body"
       d="m 585.99414,382.96875 -16.61648,8.36463 3.06273,6.7133 c 8.02301,0.0601 18.71354,2.87399 38.67875,21.13301 32.18,31.65 51.4507,71.76078 52.4707,117.30078 0.25,47.03 -9.88992,95.12898 -43.66992,129.95898 -1.18,1.15 -2.33047,2.2611 -3.48047,3.3711 -19.62,19.11 -42.01,32.25945 -68.25,40.18945 -4.77,1.36 -4.77,1.36055 -8.75,2.81055 -4,4 -3.99851,3.99976 -7.22851,6.00976 -31.05,16.61 -68.46149,30.08024 -103.77149,19.99024 -9.3,-4.23 -14.07,-8.44 -18,-18 -1.04,-6.61 0.15,-9.33055 3,-15.56055 1.02,-1.85 2.01,-3.63945 3,-5.43945 h -5 c -6,2 -6,2 -11,7 -1.31,2.35 -2.65,4.68 -4,7 -17.77,8.89 -45.83,8.65 -65,6 0.78,-1.31 1.55055,-2.5911 2.31055,-3.8711 6.07,-11.58 7.42945,-22.4889 3.68945,-35.1289 l -5,-1 c -2.82,15.97 -8.31031,27.27945 -18.82031,39.68945 -17.87,18.31 -38.86961,30.69953 -64.84961,31.51953 -21.66,0.12 -40.16953,-1.57867 -56.51953,-17.13867 -6.77,-8.99 -7.26055,-15.92031 -6.81055,-27.07031 3.63,-14.54 11.8311,-23.35 22.8711,-32.75 4.68,-3.85 6.8489,-5.55 9.1289,-11.25 h -8 c -14.75,6.96 -27.5,17.82 -37,31 -2.17,5.58 -3.82,10.63 -8,15 -5.2,0.81 -9.33,0.15875 -14.5,-0.78125 -1.87,-0.41 -3.69,-0.81875 -5.5,-1.21875 -10.04,-1.68 -19.84859,-3.49055 -29.55859,-6.56055 -6.45,-2.11 -12.85141,-3.86945 -19.441407,-5.43945 0.31,10.89 -0.04859,17.33031 -7.058594,26.07031 -9.44,9.43 -18.711015,13.42 -32.041015,14.25 -23.36,0.5 -45.110703,-5.88 -62.7207034,-21.75 -1.08,-1.22 -2.1296875,-2.39031 -3.1796875,-3.57031 -3.5000001,-3.7 -3.4994531,-3.69969 -4.1894531,-4.42969 -30.64,-35.42 -60.250547,-87.25031 -57.810547,-135.57031 2.86,-5.72 6.569688,-7.7811 12.179688,-10.6211 2.972124,-1.46756 13.657773,-6.09609 14.56352,-6.7807 l -36.062793,-19.16809 -8.923187,15.46211 -4.790431,12.19759 c -0.49771,1.3278 -0.978007,2.61973 -1.457031,3.90039 -7.039999,23.26 4.300703,53.17985 14.470703,74.08984 0.68,1.33 1.349531,2.62993 2.019531,3.91993 l 5.546875,11.08984 2.113281,2.4668 6.467304,11.49833 10.161039,16.41964 15.793532,21.61523 8.904917,11.44347 20.8157865,18.27723 9.90625,7.20508 14.4101565,4.50195 11.707031,4.50391 21.615234,1.80078 18.494704,-0.95525 11.466516,-3.4159 11.466515,-3.4159 11.708986,-7.52349 8.10547,-9.90625 3.60156,-9.00586 h 3.60351 l 11.70704,1.80078 18.91406,2.70117 18.01172,3.60351 1.80078,3.60157 2.01143,5.29994 3.39287,5.50865 5.40429,5.40234 13.50781,8.10547 16.21094,6.30469 18.01367,2.70313 13.50782,0.90039 h 12.60937 l 18.91211,-1.80274 11.70899,-2.70117 14.41015,-6.30469 13.50781,-7.20508 11.65413,-7.9409 12.0274,-0.42812 19.54017,0.42812 16.27457,-0.31841 19.38632,-3.33801 6.8318,9.79654 10.38924,7.25994 13.49904,3.86512 17.12206,2.49442 33.98569,-0.31841 26.61771,-2.49443 16.21289,-4.50195 23.42479,-11.81674 10.58917,-9.37036 3.60156,-1.0101 6.51339,-0.31842 21.61523,-6.30469 9.00586,-4.50195 20.7697,-11.0173 15.25569,-8.79716 7.36769,-5.23973 7.94286,-8.27003 10.80664,-9.00586 0.56445,-0.36914 h -2.51758 C 668.82945,648.25055 681.17,618.61 685.5,584.5 c 0.77103,-7.06619 0.78978,-7.23574 1.85938,-12.30664 l -0.041,-0.48438 -0.90039,-13.50976 V 540.1875 l -2.70313,-21.61523 -6.30468,-27.01758 -6.30274,-16.21094 -9.00586,-19.81445 -8.10742,-14.41016 -14.4082,-18.01172 -0.44727,-1.28711 c -0.26957,-0.23356 -0.38943,-0.33563 -0.59961,-0.51953 -12.92,-14.52 -36.71068,-31.63419 -54.17068,-39.85419 l -13.48528,0.41421 c -0.35426,-3.08584 15.17749,1.65689 15.11104,1.10795 z"
       fill="#86432d"
       sodipodi:nodetypes="cccccccccccccccccccccccccccccccccccccccccccccccccccccccccccccccccccccccccccccccccccccccccccccccccccccccccccccccccccccccccccc"
       style="display:inline"
       transform="translate(600.5625,154.1875)" />
    <path
       id="chest-body"
       style="display:inline"
       d="m 0,0 c -0.06,2.1 -11.443161,-1.1538476 -11.503161,0.88615238 -1.33,19.74999962 -8.011207,46.22674062 -22.871207,60.15674062 -4,3.25 8.374368,3.95656 4.374368,7.89656 -2.51,2.55 -2.51,2.550547 -3,3.060547 0,-2 0,-1.999141 1.5,-7.119141 1.25,-4.08 3.37132,6.879296 3.62132,6.079296 L -33,60 l -1,4 3.303301,7.424621 c -1,2 -6.303301,-5.425168 -8.803301,-2.485168 C -40.69,70.319453 -41.85,71.66 -43,73 -53.68,86.51 -65.14344,95.752034 -79.35344,105.41203 -84.31344,108.65203 -85.02,109.36 -86,110 c -7.14,4.76 -14.38961,8.85914 -22.09961,12.61914 -4.09,1.99 -4.09039,1.99086 -4.90039,2.38086 -2.18,1.08 -4.29039,2.13945 -6.40039,3.18945 -5.82,2.87 -5.82047,2.86969 -6.98047,3.42969 -8.82,4.37 -17.57969,7.89016 -26.92969,10.91016 -3.92,1.23 -3.91945,1.2307 -4.68945,1.4707 -28.56,9.06 -57.42094,17.43914 -86.96094,22.61914 -4.54,0.77 -9.03883,1.58047 -13.54883,2.48047 -4.49573,0.94139 -8.9592,1.81715 -13.45312,2.58789 l 7.05469,1.48633 c -0.0492,-1.8e-4 -0.1012,0.01 -0.15039,0.01 2.65159,-0.007 5.24939,0.40938 8.05859,1.81641 -0.20053,-0.10044 -0.39918,-0.19647 -0.59766,-0.28711 l 1.49414,0.31445 0.11719,1.32422 L -254,179 c 13.59,3.31 28.78016,2.86031 42.66016,1.57031 3.62,-0.48 3.61984,-0.48031 4.33984,-0.57031 35.41,-4.39 70.25,-13.56 104,-25 5.25,-1.94 5.25,-1.94 10,-3 37.35,29.88 79.22,43.13 127,41 15.06,-2.1 37.11,-4.64 47,-17 C 89.56,137.78 80.840781,93.939844 62.800781,59.839844 49.110781,36.449844 27.16,7.76 0,0 Z M -663.25781,117.56055 C -639.24094,130.02445 -613.215,139.5775 -588,148 c -25.215,-8.4225 -51.24094,-17.97539 -75.25781,-30.43945 z m 28.46875,36.90625 c 0.61245,0.44789 1.20814,0.95228 1.78906,1.5332 -8.39,3.36 -13.93,6.39 -19,14 -2.5,36.07 16.23977,72.96961 34.00977,103.09961 17.71,28.63 38.21945,53.09992 72.43945,61.16992 17.04,2.72 34.17078,1.95047 48.55078,-8.26953 7.92,-7.92 11.87,-13.18 12.25,-24.5 -0.09,-2.21 -0.17,-4.36 -0.25,-6.5 6,1 6.00063,1.00047 9.64062,2.23047 10.88,3.96 21.74891,6.61969 33.12891,8.67969 2.12,0.37 4.17047,0.72984 6.23047,1.08984 6.79,1.51 13.07,3.17 20,2 3.25,-3.42 4.67992,-6.57922 6.41992,-10.94922 2.19,-5.62 5.60008,-9.57078 9.58008,-14.05078 4.31,-3.77 7.61,-5.42 9,-11 -5,1 -5.00047,0.99914 -8.98047,2.11914 -3.24,0.92 -6.49,1.80992 -9.75,2.66992 -35.29,8.11 -65.14953,0.0709 -95.51953,-18.03906 C -516.1,253.09 -526.96,247.68 -540,249 l -2,3 c 1,3 1.00062,3.00047 4.14062,4.73047 14.01,6.47 25.80938,13.02008 34.10938,26.58008 3.86,7.98 4.55,12.28945 1.75,20.68945 -6.47,6.47 -10.90031,8.76094 -20.07031,9.46094 -2.21,-0.03 -4.35024,-0.0601 -6.49024,-0.0801 C -541.14055,313.30086 -550.37,310.81 -562,306 l -3,-3 c -4.76,-2.77 -8.10055,-5.11 -11.81055,-9.25 -2.66,-3.13 -2.65945,-3.13 -3.18945,-3.75 l -3,-1 -2,-6 h -2 v -3 h -2 l -1,-5 h -2 v -2 l -3,-6 c -1.33,-3.34 -2.66,-6.67 -4,-10 -4.18,-8.07 -7.0407,-16.35922 -9.9707,-24.94922 C -609.6607,229.99078 -610.33,228 -611,226 c -3.6,-10.65 -6.68,-20.78 -8,-32 5.45,-1.82 10.78086,-3.15945 16.38086,-4.43945 C -596.22914,188.10055 -590,186.71 -584,184 l 3,-4 c 7,0 6.99945,0 13.68945,1.75 19.079,5.27044 38.89336,8.40466 58.74219,10.96094 l -68.5625,-14.14844 -12.72852,-6.36328 -18.38476,-6.36524 -9.89844,-3.53515 -16.26367,-7.77735 z m 368.68945,18.78515 c -2.4909,0.10144 -5.03949,0.46286 -7.90039,0.74805 2.86981,-0.28607 5.40214,-0.6484 7.90039,-0.74805 z"
       transform="translate(1181,554)"
       fill="#f9dfab"
       sodipodi:nodetypes="ccccccccccccccccccccccccccccccccccccccccccccccccccccccccccccccccccccccccccccccccccccccccccccccccc" />
    <path
       id="base-head"
       style="display:inline"
       d="m 142.60742,43.095703 -76.369139,7.070313 -57.9824216,21.21289 -49.4960934,20.50586 -67.882816,53.033204 -31.11328,31.11328 -41.71875,55.1543 -16.26367,26.16406 -0.77148,0.50781 c -2.4e-4,5.7e-4 2.3e-4,0.001 0,0.002 -12.42018,30.4608 -19.37146,63.51701 -21.25977,96.33007 -0.11,2.59 -0.21055,5.1111 -0.31055,7.6211 -14.28,-2.48 -28.54,-2.41 -43,-2 -3,1 -3,1 -6,5 0,6 0,6 1,8 6.64,3.99 6.64094,3.98867 26.71094,5.63867 2.6,0.16 5.13016,0.33023 7.66016,0.49023 2.65,0.17 5.20929,0.33977 7.77929,0.50977 1.99,0.12 3.91961,0.24133 5.84961,0.36133 -0.11,6.15 0.0104,12.08898 0.65039,18.20898 0.29,2.05 0.56961,4.05102 0.84961,6.04102 0.28,2.09 0.55985,4.11867 0.83985,6.13867 0.22,1.57 0.44015,3.09133 0.66015,4.61133 -12.3,2.63 -24.2,4.83 -34,13 v 7 l 3,3 c 8.03,0.61 15.11055,-1.22102 22.81055,-3.29102 1.62,-0.45 3.18,-0.89008 4.75,-1.33008 1.64,-0.46 3.23031,-0.90961 4.82031,-1.34961 1.23,-0.35 2.41914,-0.68929 3.61914,-1.02929 0,18.16 15.34071,42.16984 25.47071,56.58984 0.86,1.16 1.68929,2.29016 2.52929,3.41016 22.1,30.05 52.75071,52.90992 86.470706,68.41992 0.428316,0.19274 0.851087,0.38176 1.271485,0.57031 h 0.002 l 28.705078,-5.4668 h 17.677734 l 20.50586,-2.12109 53.0625,28.19141 22.134765,17.90039 54.0625,8.36328 50.546882,8.94922 47.35547,0.41406 30.35546,-0.87891 47.62696,1.29297 30.64843,-10.41406 56.25391,4.34375 -27.88672,-34.82812 45.25586,-7.7793 70.70899,-20.50586 56.57031,-33.93945 40.30469,-41.72071 16.9707,-31.82031 16.26367,-40.30469 4.94922,-13.43359 1.02344,-0.64063 c -0.22069,-1.92146 -0.23228,-2.01341 -0.29883,-2.5625 0.26,-6.32 0.70031,-12.60039 0.0703,-18.90039 -0.21,-1.4 -0.41133,-2.7689 -0.61133,-4.1289 -2.28,-17.52 -5.94,-34.08 -11,-51 -1.21538,-3.81246 -1.65194,-5.18387 -2.09765,-6.99805 l -16.07813,-35.27148 -26.16211,-41.71875 -23.33398,-24.75 -68.58989,-50.9102 L 398.58008,126.5332 378.07422,110.97852 341.30469,85.521484 310.89844,69.964844 267.76367,56.53125 211.19531,45.923828 Z"
       transform="translate(600.5625,154.1875)"
       fill="#fcf4e3"
       sodipodi:nodetypes="cccccccccccccccccccccccccccccccccccccccccccccccccccccccccccccccccccccccc" />
    <path
       id="chest-head"
       style="display:inline"
       d="M -713 89 C -713 93.22 -713.00055 93.220547 -705.81055 101.81055 C -704.52055 103.24055 -703.26 104.62 -702 106 C -699.05 109.38 -696.06 112.72 -693 116 L -689 118 L -689 120 C -686 125 -686.00055 124.99945 -679.81055 129.18945 C -674.96055 132.36945 -674.96 132.37 -674 133 L -674 135 C -663.97 140.88 -653.45055 145.90055 -642.81055 150.56055 C -639.84668 151.81939 -637.19348 152.71024 -634.79102 154.4668 L -634.40625 154.52148 L -618.14258 162.29883 L -608.24414 165.83398 L -589.85938 172.19922 L -577.13086 178.5625 L -504.96875 193.45312 C -504.96419 193.45369 -504.95964 193.45451 -504.95508 193.45508 C -495.87337 194.57836 -486.79895 195.53295 -477.80078 196.41016 C -475.49078 196.61016 -473.24 196.81 -471 197 C -422.9 201.24 -374.57086 200.42039 -326.88086 192.90039 C -322.92086 192.27039 -318.96 191.63 -315 191 C -295.12 188.13 -275.6 184.32 -256 180 L -257 178 L -264 179 L -269 177 L -274 176 L -274 174 C -270.68837 173.66988 -267.76979 173.16337 -264.9082 173.17383 L -271.96484 171.6875 L -271.96875 171.6875 C -274.92011 172.19362 -277.88472 172.65631 -280.88086 173.06055 C -283.30086 173.38055 -285.65 173.69 -288 174 C -297.98 176.28 -307.63031 177.6993 -317.82031 178.5293 C -319.92031 178.6893 -321.96 178.84 -324 179 C -410.35 186.49 -501.38984 176.46016 -583.83984 149.41016 C -585.24984 148.93016 -586.63 148.47 -588 148 C -621.62 136.77 -656.68 123.53055 -686.5 104.06055 C -689.28 102.17055 -692.07062 100.31047 -694.89062 98.480469 C -696.35062 97.550469 -697.76945 96.65 -699.18945 95.75 C -703.92945 92.73 -707.61 90.8 -713 89 z M -257.59766 174.71289 C -257.39918 174.80353 -257.20053 174.89956 -257 175 L -255.98633 176.35156 L -256.10352 175.02734 L -257.59766 174.71289 z "
       transform="translate(1181,554)"
       fill="#F9DFAB" />
    <path
       id="back-patch"
       d="M 0,0 C 27.16,7.76 49.11,36.45 62.8,59.84 80.84,93.94 89.56,137.78 81,176 c -9.89,12.36 -31.94,14.9 -47,17 -51.02,2.28 -92.54,-13.43 -132,-45 -5.5,-0.45 -10.81,-0.7 -16.31,-0.75 -1.51,-0.03 -3.01,-0.06 -4.56,-0.09 -3.71,-0.07 -7.42,-0.12 -11.13,-0.16 3.34,-2.23 6.77,-3.91 10.38,-5.69 12.78,-6.37 24.87,-13.19 36.62,-21.31 1.82,-1.24 3.63,-2.48 5.5,-3.75 7.29,-5.63 13.88,-11.85 20.5,-18.25 1.16,-1.12 2.32,-2.24 3.52,-3.39 4.42,-4.34 8.28,-8.27 11.48,-13.61 1.32,-1.32 2.64,-2.64 4,-4 0.16,-0.5 0.16,-0.5 1,-3 1.65,-0.99 3.3,-1.98 5,-3 C -12.65,54.9 -3.31,35.25 -0.46,10.31 -0.23,6.88 -0.1,3.44 0,0 Z"
       fill="#edaf69"
       transform="translate(1181,554)"
       style="display:inline" />
    <path
       id="outline-head"
       d="m 150.25977,41.140625 c -16.07875,0.153125 -32.13961,1.146563 -48.09961,3.039063 -3.530004,0.42 -3.530707,0.419765 -4.220707,0.509765 -4.599977,0.52595 -9.198728,1.066007 -13.78125,1.71875 -0.01495,0.0021 -0.02997,0.0037 -0.04492,0.0059 l -2.695312,0.400391 c -0.0039,8.7e-4 -0.0079,0.0011 -0.01172,0.002 -4.648765,1.047324 -9.29808,2.066383 -13.966797,2.994141 -0.173141,-0.08657 -0.337332,-0.170535 -0.496094,-0.25 l -21.763671,6.996094 -1.513672,0.257812 c 0.260994,0.327429 0.519076,0.659386 0.773437,0.996094 -15.42,4.89 -30.068906,10.808906 -44.37890613,18.378906 -2.85999997,1.55 -5.74109377,3.101094 -8.62109377,4.621094 -4.1800001,1.67 -4.1800001,1.67 -5.0000001,2 l -2,7 c 72.6,-26.01 145.159846,-37.419844 222.339846,-28.589844 1.52,0.18 3.0007,0.359297 4.4707,0.529297 6.47,0.72 13.68945,0.400547 19.18945,4.060547 -1.17,-0.06 -2.30945,-0.121406 -3.43945,-0.191406 -4.56,1.19 -4.55945,1.190859 -8.93945,5.880859 -1.57,2.15 -3.1011,4.230547 -4.6211,6.310547 -3.5,4.58 -6.89,9.16 -10,14 -12.48,25.500005 -9.02,53.008905 -0.5,79.128905 16.95,46.15 56.21102,78.89118 99.29102,100.45117 1.28,0.63 2.52953,1.24938 3.76953,1.85938 23.44,11.6 46.54,21.44914 72,27.86914 50.76,11.56 100.05055,6.03031 144.81055,-21.17969 3.8,-2.57 7.6189,-4.8989 11.6289,-7.1289 4,6 4.00133,5.99867 6.36133,11.13867 24.17,57.74 30.44977,121.85992 8.25977,181.16992 -0.89,2.28 -1.7611,4.49141 -2.6211,6.69141 2,-1 2.00055,-0.99969 5.56055,-3.92969 19.65,-17.99 26.12969,-38.05133 28.17969,-64.11133 0.08,-1.34 0.16976,-2.64898 0.25976,-3.95898 0.72741,0 1.39951,-8.9e-4 2.0293,0.008 l 3.98047,-12.73633 0.0371,-0.26172 -0.0469,-0.01 c -0.38,-3.31 -0.37898,-3.31071 -0.45898,-3.97071 0.26,-6.32 0.70031,-12.60039 0.0703,-18.90039 -0.21,-1.4 -0.41133,-2.7689 -0.61133,-4.1289 -2.28,-17.52 -5.94,-34.08 -11,-51 -1.414,-4.4355 -1.7744,-5.56991 -2.32031,-7.9375 -0.66749,-1.35997 -1.29842,-2.65118 -1.88086,-3.85157 -2.3443,-4.83154 1.20693,-12.43529 -1.19467,-17.23858 -2.7019,-5.40369 -5.52707,-2.61556 -8.10547,-8.07921 -3.7856,-8.02165 -12.9123,-21.65633 -16.819,-29.61971 -3.9044,-7.95882 -8.01662,-15.83237 -12.60742,-23.41601 -6.3817,-10.54194 -13.11395,-20.92142 -20.71484,-30.62109 -7.73511,-9.87086 -15.6911,-19.76365 -25.2168,-27.91993 -13.3909,-11.46579 -15.54812,-10.3041 -23.41602,-15.31054 -12.511,-7.96088 -24.92337,-16.1072 -37.82617,-23.41602 -9.1124,-5.16176 -18.6539,-9.52576 -27.91797,-14.41016 -11.76263,-6.20178 -23.24627,-12.935707 -35.125,-18.912107 -9.47767,-4.76839 -18.95298,-9.611086 -28.82031,-13.509766 -11.74308,-4.63982 -35.12305,-12.607421 -35.12305,-12.607421 l 0.0293,-0.396485 c -1.02437,-4.21e-4 -2.08923,-0.243721 -4.20117,-0.724609 -46.29,-13.0575 -94.68367,-20.158594 -142.91992,-19.699219 z M -22.560547,86.810547 c -12.34,5.2 -23.768906,10.768594 -34.878906,18.308593 -1.74,1.26 -3.431094,2.48141 -5.121094,3.69141 -8.26,5.52 -16.24,11.04031 -23.75,17.57031 -2.06,1.84 -4.14,3.64969 -6.25,5.42969 l -4,2 v 2 c -1.72,1.43 -3.388594,2.80945 -5.058593,4.18945 -5.94,4.81 -5.94086,4.81 -9.63086,8.5 l -3.31055,3.31055 c -11.16,8.28 -20.91851,17.61992 -30.22851,27.91992 -0.94,1.05 -1.86149,2.07008 -2.77149,3.08008 -9.2,9.83 -17.24,20.31859 -24.25,31.80859 -3.38,5.58 -6.96,10.90141 -10.75,16.19141 -0.12104,-0.12089 -0.24032,-0.24036 -0.35742,-0.35743 l -15.9707,28.74219 -0.84571,0.50781 c -11.95421,29.94853 -18.66535,62.33433 -20.51562,94.48633 -0.11,2.59 -0.21055,5.1111 -0.31055,7.6211 -14.28,-2.48 -28.54,-2.41 -43,-2 -3,1 -3,1 -6,5 0,6 0,6 1,8 6.64,3.99 6.64094,3.98867 26.71094,5.63867 2.6,0.16 5.13016,0.33023 7.66016,0.49023 2.65,0.17 5.20929,0.33977 7.77929,0.50977 1.99,0.12 3.91961,0.24133 5.84961,0.36133 -0.11,6.15 0.0104,12.08898 0.65039,18.20898 0.29,2.05 0.56961,4.05102 0.84961,6.04102 0.28,2.09 0.55985,4.11867 0.83985,6.13867 0.22,1.57 0.44015,3.09133 0.66015,4.61133 -12.3,2.63 -24.2,4.83 -34,13 v 7 l 3,3 c 8.03,0.61 15.11055,-1.22102 22.81055,-3.29102 1.62,-0.45 3.18,-0.89008 4.75,-1.33008 1.64,-0.46 3.23031,-0.90961 4.82031,-1.34961 1.23,-0.35 2.41914,-0.68929 3.61914,-1.02929 0,18.16 15.34071,42.16984 25.47071,56.58984 0.86,1.16 1.68929,2.29016 2.52929,3.41016 22.1,30.05 52.75071,52.90992 86.470706,68.41992 1.2,0.54 4.745782,5.30272 5.915782,5.82272 -0.118037,0.31476 21.952008,3.45507 21.747478,1.733 l 14.737131,-10.38775 0.9375,0.35351 c 0.758679,-0.50874 1.255623,-1.00562 2.191406,-1.9414 -27.05,-10.87 -53.980003,-25.58 -76.500003,-44.25 -1.87,-1.61 -3.69,-3.18 -5.5,-4.75 -2.71,-2.28 -5.38,-4.61 -8,-7 -4.18,-5.01 -4.18,-5.01 -5,-6 -10.87,-11.52 -20.04968,-23.42961 -27.67968,-37.34961 -3.9,-7.81 -14.18032,-23.06039 -11.32032,-31.65039 2.36,-0.51 4.65141,-1 6.94141,-1.5 7.51,-1.37 15.48859,-1.93 21.05859,-7.5 l -1,-6 c -4.87,-1.22 -8.97,-1.17 -14,-1 -6.44,1.01 -11.59,2.28 -18,1 -2.02,-6.47 -2.02,-6.47 -3,-27 5.12,0 9.27,0.86 14.25,2 7.82,1.8 14.86,2.97 22.75,1 -0.84,-5.84 -0.84,-5.84 -1,-7 l -6,-3 c -2.36,-0.66 -4.64945,-1.29969 -6.93945,-1.92969 -2.67,-0.77 -5.36055,-1.45031 -8.06055,-2.07031 -6.79,-0.19 -8.63,-0.54 -15,-4 -0.81,-5.3 -0.80851,-5.29961 -0.97851,-6.34961 -0.24,-70.18 26.62906,-138.19094 69.28906,-193.21094 1.25,-1.51 2.46945,-2.96945 3.68945,-4.43945 24.430003,-31.06 61.430081,-51.67969 96.580081,-68.429691 1.84,-0.88 3.629922,-1.720312 5.419922,-2.570312 l -2,-2 z"
       fill="#86432d"
       transform="translate(600.5625,154.1875)"
       style="display:inline"
       sodipodi:nodetypes="sccsccccccccccccccccccccccccccccccccccccccccsssssssssssscccssccccccccscccccccccccccccccccccccccccccccccccccccccccccccccccccccccccccc" />
    <path
       id="patch-head-right"
       style="display:inline"
       d="m -335.01953,80.019531 c -6.38,1.25 -6.38,1.250938 -12.5,9.460938 -0.84,1.2 -1.66047,2.359531 -2.48047,3.519531 -3.5,4.57 -6.9,9.14 -10,14 -12.48,25.49 -9.02,52.99914 -0.5,79.11914 17.07,46.47 56.91906,79.75094 100.28906,101.46094 1.28,0.63 2.53149,1.23937 3.77149,1.85937 25.43,12.58 50.50883,22.98055 78.29883,29.31055 48.22,9.84 97.299839,3.85969 139.089839,-23.32031 3.31,-2.19 5.805781,-4.06969 9.175781,-6.17969 l 2.75,-1.625 c 4.94,0.19 -29.838865,-42.44016 -28.125,-43.375 l 8.398438,-4.58008 -22.960938,-24.05664 -15.910156,-11.66601 -25.101564,-26.51758 -22.6289,-19.79883 -17.67774,-15.91016 -14.14062,-6.71679 -14.14258,-8.83789 -20.10156,-6.13477 L -200,121 c -5.44,0 -5.43914,-6.3e-4 -15.61914,-4.89062 -35.21,-17.000005 -79.69039,-36.239849 -119.40039,-36.089849 z"
       transform="translate(1163,139)"
       fill="#ecad66" />
    <path
       id="patch-head-left"
       style="display:inline"
       d="M 214,77 C 187.57,76.19 160.73031,78.180625 134.82031,83.640625 132.84031,84.100625 130.92,84.55 129,85 105.17,90.56 82.009453,97.349766 58.939453,105.50977 56.579453,106.35977 54.29,107.18 52,108 L 53.119141,104.08398 45,106.45117 V 108 l 2,2 C 30.22,117.86 13.940938,125.80953 -1.5390625,136.01953 -3.0590625,137.02953 -4.53,138.02 -6,139 -19.2,147.77 -32.910547,156.45055 -43.810547,168.06055 -44.900547,169.40055 -45.95,170.7 -47,172 c -24.52,25.85 -47.5,60.84 -58,95 6.15,2.46 6.15,2.46 19,4 66.52,3.75 130.110391,-25.53078 179.900391,-68.30078 C 94.960391,201.77922 95.98,200.89 97,200 c 6.65,-5.6 12.76992,-11.6393 18.91992,-17.7793 1.38,-1.39 2.73008,-2.74156 4.08008,-4.10156 12.12,-12.14 24.25078,-24.25992 35.55078,-37.16992 2.09,-2.4 4.19985,-4.76914 6.33984,-7.11914 0.95,-1.02 1.86883,-2.01953 2.79883,-3.01953 1.06,-1.14 2.09133,-2.25133 3.11133,-3.36133 C 172.88078,121.96922 177.97,116.51 183,111 c 6.92,-8.09 14.36,-15.6 22,-23 4.49,-3.85 7.58,-5.33 9,-11 z M -21.267578,146.51953 -21.761719,146.8418 -27.607422,152 H -27 c 1.864258,-1.86426 3.77601,-3.69114 5.732422,-5.48047 z m -8.3125,7.22266 -16.222656,14.31445 -5.125,5.5918 c 1.422401,-1.14396 2.385313,-2.10602 5.238281,-4.95899 L -41,164 c 3.68,-2.99 7.35,-5.99 11,-9 z"
       transform="translate(533,136)"
       fill="#ebac66" />
    <g
       id="eye-sockets">
      <path
         id="eye-socket-right"
         d="M0 0 C17.28 13.8 25.88 31.18 29 53 C29.86 71.94 24.94 88.29 13 103 C0.57 115.77 -13.8 121.49 -31.44 122.38 C-50.94 121.41 -66.47 115.21 -80 101 C-93.3 82.68 -97.6 62.76 -94.35 40.54 C-91.21 26.62 -84.94 16.08 -75 6 C-73.99 4.97 -72.98 3.94 -71.94 2.88 C-49.53 -13.48 -23.71 -14.99 0 0 Z "
         fill="#8F513B"
         transform="translate(905,453)" />
      <path
         id="eye-socket-left"
         d="M0 0 C14.46 13.09 23.11 30.13 24.29 49.78 C24.62 69.28 20.35 84.99 9 101 C-3.17 113.17 -16.05 120.03 -33.5 120.5 C-48.48 120.08 -59.85 115.08 -71.19 105.44 C-84.7 89.72 -88.79 71.39 -88 51 C-85.47 31.26 -78.27 14.31 -63 1 C-42.46 -12.87 -20.66 -14.31 0 0 Z "
         fill="#8E503A"
         transform="translate(598,440)" />
    </g>
    <path
       id="cheek-right"
       d="M0 0 C0.91 -0.01 0.91 -0.01 5.54 -0.06 C30.67 -0.13 30.67 -0.13 41.44 5.25 C41.77 7.56 42.1 9.87 42.44 12.25 C30.15 22.08 8.29 17.14 -6.75 16.75 C-8.67 16.7 -10.58 16.65 -12.56 16.61 C-17.23 16.49 -21.9 16.37 -26.56 16.25 C-26.56 16.91 -26.56 17.57 -26.56 18.25 C-25.9 18.41 -25.9 18.41 -22.56 19.25 C-14.82 24.56 -10.82 32.23 -8.56 41.25 C-8.56 43.56 -8.56 45.87 -8.56 48.25 C-9.73 47.97 -10.9 47.7 -12.11 47.41 C-12.87 47.23 -12.87 47.23 -16.75 46.31 C-18.27 45.95 -19.79 45.59 -21.36 45.22 C-30.61 43.08 -36.85 41.9 -45.56 46.25 C-45.4 47.4 -45.4 47.4 -44.56 53.25 C-37.08 58.1 -27.97 60.45 -19.56 63.25 C-23.62 71.36 -31.77 75.27 -40.06 78.12 C-59.43 83.61 -78.16 84.67 -97 76.44 C-106.48 71 -113 64.95 -116.56 54.25 C-117.34 41.43 -112.68 34.01 -104.56 24.25 C-89.1 10.01 -71.85 6.77 -51.56 7.25 C-48.56 7.25 -48.56 7.25 -44.56 4.25 C-29.5 0.84 -15.37 0.04 0 0 Z "
       fill="#FFB0A0"
       transform="translate(1033.5625,532.75)" />
    <path
       id="cheek-left"
       d="M0 0 C9.27 7.11 17.11 15.44 20 27 C20.41 37.26 20.03 43.74 14.06 52.12 C1.98 63.65 -12.92 65.61 -28.89 65.35 C-42.02 64.45 -54.7 59.3 -64 50 C-61 48 -61 48 -57 46 C-56 42 -56 42 -57 38 C-62.67 36.58 -68.18 36.94 -74 37 C-73.12 23.15 -73.12 23.15 -70 17 C-67.36 17 -64.72 17 -62 17 C-59.69 16.34 -57.38 15.68 -55 15 C-54 13 -54 13 -54 7 C-57.58 4.36 -60.78 2.41 -65 1 C-64 -2 -64 -2 -60.25 -4.44 C-38.8 -14.91 -19.99 -11.57 0 0 Z "
       fill="#FFB0A0"
       transform="translate(498,525)" />
    <g
       id="paws">
      <path
         id="paw-mid"
         d="M0 0 C0.16 0.5 0.16 0.5 1 3 C-2 7 -2 7 -7 8 C-7.99 8.99 -8.98 9.98 -10 11 C-12.99 13.01 -15.99 15.01 -19 17 C-23.79 20.83 -27.02 24.06 -29 30 C-29.46 36.94 -29.36 41.44 -25 47 C-13.46 56.03 0.1 56.66 14.12 56.5 C15.76 56.49 17.39 56.49 19.07 56.48 C30.52 56.32 40.89 54.87 52 52 C52.33 52.66 52.66 53.32 53 54 C27.31 64.58 -4.68 73.58 -31.88 63.12 C-39.99 58.95 -45.07 54.78 -48 46 C-48.71 38.29 -46.76 33.69 -43 27 C-42.67 26.34 -42.34 25.68 -42 25 C-49.15 25.61 -53.17 27.03 -58.19 32.44 C-61 36 -61 36 -63 40 C-82.34 46.79 -106.86 47.78 -127 45 C-125.21 41.52 -123.42 38.03 -121.63 34.55 C-120 31 -120 31 -119 26 C-118.67 26 -118.34 26 -118 26 C-117.84 24.51 -117.84 24.51 -117 17 C-115.71 16.99 -115.71 16.99 -109.2 16.92 C-75.83 16.44 -43.93 13.66 -13 0 C-7 -1 -7 -1 0 0 Z "
         fill="#F5D39C"
         transform="translate(1059,829)" />
      <path
         id="paw-right"
         d="M0 0 C5 5 5 5 6 10 C2.96 16.58 -0.81 22.19 -5.25 27.88 C-10 34 -10 34 -12 39 C-33.28 63.31 -64.23 81.65 -96 88 C-98 87 -98 87 -100 82 C-105.96 76.84 -111.46 73.51 -119 71 C-119 70.34 -119 69.68 -119 69 C-121.97 68.67 -124.94 68.34 -128 68 C-128 67.01 -128 66.02 -128 65 C-124.28 64.28 -120.55 63.57 -116.81 62.93 C-102.26 60.12 -88.77 54.88 -75.28 48.86 C-71 47 -71 47 -67 46 C-67 45.34 -67 44.68 -67 44 C-62.08 41.38 -57.18 39.07 -52 37 C-52 36.34 -52 35.68 -52 35 C-50.02 33.68 -48.04 32.36 -46 31 C-44.05 29.15 -42.15 27.25 -40.3 25.32 C-39.23 24.22 -38.17 23.13 -37.07 22.01 C-34.87 19.72 -32.67 17.43 -30.47 15.13 C-21.27 5.71 -13.51 0 0 0 Z "
         fill="#F9DEA9"
         transform="translate(1235,779)" />
      <path
         id="paw-left"
         d="M0 0 C13.04 -1.32 23.9 4.09 34.75 10.75 C65.12 28.86 94.98 36.9 130.27 28.79 C133.53 27.93 136.78 27.04 140.02 26.12 C144 25 144 25 149 24 C147.61 29.58 144.31 31.23 140 35 C136.02 39.48 132.61 43.43 130.42 49.05 C128.68 53.42 127.25 56.58 124 60 C117.07 61.17 110.79 59.51 104 58 C102.97 57.82 102.97 57.82 97.77 56.91 C86.39 54.85 75.52 52.19 64.64 48.23 C61 47 61 47 55 46 C55.04 48.25 55.08 50.5 55.12 52.81 C54.98 61.43 54.23 61.46 49 68 C48.13 69.13 47.27 70.27 46.38 71.44 C40.7 77.42 35.12 80.65 27 82 C21 77 21 77 20 71 C20.16 70.5 20.16 70.5 21 68 C24.3 66.9 27.64 65.89 31 65 C29.7 65.32 28.41 65.65 27.07 65.98 C9.81 69.45 -7.17 66.44 -23 59 C-23.33 58.34 -23.66 57.68 -24 57 C-23.4 57.21 -23.4 57.21 -20.38 58.25 C-19.49 58.54 -19.49 58.54 -15 60 C-13.02 60.72 -11.04 61.44 -9 62.19 C2.73 65.51 17.39 66.29 28.95 62.28 C35.22 58.75 37.72 55.83 40 49 C40 38.36 34.62 30.94 28 23 C19.76 16.79 11.5 12.05 2.14 7.73 C-1 6 -1 6 -2 3 C-1.34 2.01 -0.68 1.02 0 0 Z "
         fill="#F2CA90"
         transform="translate(641,803)" />
    </g>
    <g
       class="ear-anim"
       id="g7">
      <path
         id="patch-ear-right"
         style="display:inline"
         d="M -23.972656 -5.0566406 C -88.994043 -6.4298438 -210.81875 60.1425 -247 89 C -244.81 91.19 -244.80969 91.189219 -235.92969 95.699219 C -222.82969 102.33922 -209.49 108.51 -199 119 L -199.94141 120.88086 L -191.43555 126.16602 L -173.75781 144.55078 L -157.49414 157.27734 L -128.50195 179.19727 L -103.04688 205.36133 L -81.833984 223.03906 L -55.316406 252.73633 L -37.638672 273.24414 L -34.191406 274.39258 C -43.023889 261.8515 -56.32579 244.8368 -55.25 244.25 L -36 233.75 C -36 233.75 -25.29576 245.83107 -20.625 253.125 C -15.610601 260.95556 -7.25 279 -7.25 279 L -3 277 L 0 274 C 37.02 218.47 26.409453 143.71977 20.689453 80.259766 C 20.109453 75.029766 20.11 75.03 20 74 C 17.42 49.67 16.24 19.48 0 0 C -6.555 -3.2775 -14.683887 -4.8604687 -23.972656 -5.0566406 z "
         transform="translate(1163,139)"
         fill="#EBAC66" />
      <path
         id="patch-ear-left"
         style="display:inline"
         d="M -81.509766,-26.400391 C -87.481377,-26.148723 -92.783125,-24.810625 -97,-22 -117.8,5.29 -117.79969,5.2897656 -128.42969,81.759766 -128.61969,83.199766 -128.81,84.6 -129,86 c -2.44,18.12 -3.17078,35.97 -3.30078,54.25 0,2.55 -0.01,5.02 -0.01,7.5 C -132.40055,183 -129,216.04 -116,249 c 2,-1 2,-0.99906 4,-4.03906 15.317028,-25.2648 32.930643,-49.56973 56.488281,-67.82032 h 0.002 l 0.513672,-0.5996 10.181641,-8.72657 L -41,164 c 3.68,-2.99 7.35,-5.99 11,-9 l 1,-3 h 2 c 20.15,-20.15 45.93,-35.94 72,-47 v 3 l 0.777344,0.77734 4.585937,-2.24023 2.427735,-1.30664 L 54,101 57,100 C 73.63,90.96 90.380078,83.300938 108.33008,77.210938 109.58008,76.800938 110.79,76.4 112,76 91.03,44.55 38.180625,18.529687 5.640625,2.6796875 3.720625,1.7696875 1.86,0.88 0,0 -17.184375,-8.19 -55.632783,-27.49095 -81.509766,-26.400391 Z"
         transform="translate(533,136)"
         fill="#ebac66" />
    </g>
    <g
       id="ears-inner">
      <path
         id="ear-inner-right"
         d="M0 0 C12.78 15.97 10.18 39.46 10.19 58.75 C10.2 60.94 10.21 63.13 10.22 65.39 C10.24 85.69 8.95 105.47 4.88 125.38 C4.73 126.13 4.73 126.13 3.97 129.94 C0.76 145.73 -3.06 161.37 -7 177 C-8.66 183.63 -8.14 188.59 -6 195 C-9 197 -9 197 -13 197 C-13 197.66 -13 198.32 -13 199 C-13.99 199.33 -14.98 199.66 -16 200 C-16.66 199.67 -17.32 199.34 -18 199 C-18 198.34 -18 197.68 -18 197 C-17.34 197 -16.68 197 -16 197 C-16.33 196.01 -16.66 195.02 -17 194 C-17.66 194 -18.32 194 -19 194 C-19.66 194.66 -20.32 195.32 -21 196 C-21.66 195.67 -21.66 195.67 -25 194 C-23.82 195.61 -22.65 197.22 -21.44 198.88 C-20.3 200.57 -19.17 202.26 -18 204 C-18.33 204.66 -18.66 205.32 -19 206 C-19.79 205.02 -20.58 204.04 -21.39 203.03 C-33.57 187.94 -46.03 172.97 -59.75 159.25 C-63 156 -63 156 -66.44 152 C-70.06 147.94 -73.9 144.58 -78 141 C-80.28 138.72 -82.55 136.43 -84.81 134.12 C-90.58 128.31 -96.6 123.11 -103 118 C-104.59 116.56 -106.18 115.11 -107.81 113.62 C-115.08 107.15 -122.66 101.08 -130.6 95.44 C-133.47 93.39 -136.25 91.21 -139 89 C-136.54 79.15 -123.58 71.08 -116 65 C-113.77 63.07 -111.54 61.13 -109.31 59.19 C-84.9 38.22 -33.55 -5.51 0 0 Z "
         fill="#A46D54"
         transform="translate(1143,203)" />
      <path
         id="ear-inner-left"
         d="m 0,0 c 8.45,6.12 16.27,12.73 23.91,19.82 2.41,2.22 4.87,4.4 7.34,6.56 2.58,2.26 5.07,4.63 7.5,7.06 v 2 h 2 c 2.39,2.62 4.71,5.29 7,8 0.65,0.72 0.65,0.72 3.94,4.37 3.06,3.63 3.06,3.63 3.06,5.63 0.5,0.16 0.5,0.16 3,1 1.76,2.02 3.43,4.12 5.06,6.25 0.98,1.27 1.96,2.54 2.97,3.86 0.98,1.28 1.96,2.56 2.97,3.89 0.87,1.1 1.74,2.19 2.63,3.33 16.37,20.8 9.87,5.8 9.87,11.67 0.96,-0.56 8.42,13.88 9.4,13.31 10.09,-5.77 -7.409999,2.48 3.350001,0.69 l -2.25,3.5 2,1.25 c -4.64,2.5 -4.42,2.16 -9.25,4.25 -2.77,1.24 24.709999,-10.76 21.949999,-9.51 -0.67,0.3 -24.669999,12.55 -28.049999,14.07 -11.21,5.18 2.499999,-0.56 -7.650001,6.44 -1.6,1.1 -3.19,2.2 -4.84,3.33 -8.62,5.98 -16.98,12.1 -25.16,18.67 l -6,3 c -3.38,2.94 -6.71,5.95 -10,9 -1.32,1.13 -2.64,2.27 -4,3.44 -4.87,4.33 -9.42,8.92 -14,13.56 -17,17 -17,17 -22,21 -3,-1 -3,-1 -5.02,-4.87 C -35.2,145.8 -33.5,94.1 -28.25,53.44 c 0.27,-2.09 0.54,-4.17 0.81,-6.32 C -21.99,8.67 -21.99,8.67 -15.25,-2.56 -8.95,-3.82 -5.51,-3.32 0,0 Z"
         fill="#a36c53"
         transform="translate(456.25,158.5625)"
         sodipodi:nodetypes="ccccccccccccccccccccccccccccccccccc" />
    </g>
    <g
       id="eye-pupils">
      <path
         id="eye-pupil-right"
         d="M0 0 C17.33 13.79 25.21 30.32 29 52 C30.2 71.7 25.18 88.01 12.81 103.5 C-0.26 115.87 -14.07 121.61 -31.94 122.31 C-52.11 121.62 -67.02 114.44 -81 100 C-93.04 82.61 -96.22 65.8 -95 45 C-91.22 25.06 -82.79 11.63 -67 -1 C-44.12 -14.37 -22.61 -12.87 0 0 Z "
         fill="#583629"
         transform="translate(905,453)" />
      <path
         id="eye-pupil-left"
         d="M0 0 C15.25 9.15 23.35 22.98 28.69 39.56 C32.58 60.23 31.01 79.68 20.31 98.19 C10.11 112.54 -1.58 120.39 -18.69 124.19 C-37.53 124.99 -50.44 121.91 -64.88 109.62 C-78.59 93.66 -82.26 74.76 -81.69 54.19 C-79.57 34.52 -71.27 18.37 -56.69 5.19 C-38.75 -6.92 -19.79 -9.78 0 0 Z "
         fill="#543226"
         transform="translate(591.6875,435.8125)" />
    </g>
    <g
       id="eye-highlights">
      <ellipse
         id="eye-highlight-right-main"
         cx="888"
         cy="490"
         rx="11"
         ry="9"
         fill="#FFF" />
      <circle
         id="eye-highlight-right-sub"
         cx="858"
         cy="518"
         r="3.5"
         fill="#FFF"
         opacity="0.5" />
      <ellipse
         id="eye-highlight-left-main"
         cx="580"
         cy="478"
         rx="11"
         ry="9"
         fill="#FFF" />
      <circle
         id="eye-highlight-left-sub"
         cx="550"
         cy="506"
         r="3.5"
         fill="#FFF"
         opacity="0.5" />
    </g>
    <path
       id="mouth"
       d="M0 0 C6 1 6 1 9 5 C9.99 7.97 10.98 10.94 12 14 C17.01 20.77 21.79 24.26 30 27 C39.68 27 44.9 24.99 51.94 18.31 C53.28 16.89 54.62 15.47 56 14 C58 13 58 13 64 13 C68 16 68 16 69 21 C64.54 29.93 61.04 34.03 52.12 38.38 C39.46 42.39 28.73 41.12 16.62 35.69 C10 32 10 32 3 27 C-2 28 -2 28 -6.5 31.31 C-15.06 37.05 -21.93 39.19 -32.25 38.56 C-43.25 36.02 -49.04 31.88 -56 23 C-59 16 -59 16 -59 8 C-56 3 -56 3 -55 2 C-53.02 2 -51.04 2 -49 2 C-46 6 -46 6 -44.12 11.94 C-41.76 18.68 -39.44 21.78 -33 25 C-24.68 25.59 -21.79 24.89 -14 21 C-8.31 15.5 -5.74 10.35 -3 3 C-2.01 2.01 -1.02 1.02 0 0 Z "
       fill="#542819"
       transform="translate(707,529)" />
    <g
       id="whiskers-right">
      <path
         id="whisker-right-upper"
         d="M0 0 C1 1 1 1 1 7 C-12.32 17.65 -40.02 11.89 -56.5 11.62 C-58.99 11.59 -61.47 11.56 -64.04 11.53 C-66.41 11.49 -68.78 11.45 -71.22 11.41 C-73.36 11.38 -75.51 11.35 -77.72 11.32 C-83 11 -83 11 -88 9 C-88.99 7.35 -89.98 5.7 -91 4 C-73.38 -13.62 -21.85 -8.86 0 0 Z "
         fill="#632F1B"
         transform="translate(1075,538)" />
      <path
         id="whisker-right-lower"
         d="M0 0 C21.84 7.29 21.84 7.29 28.84 14.28 C28.84 15.93 28.84 17.58 28.84 19.28 C24.84 22.28 24.84 22.28 15.84 22.28 C8.98 20.26 2.24 18.13 -4.54 15.84 C-5.49 15.53 -5.49 15.53 -10.33 13.91 C-14.17 12.63 -18 11.35 -21.83 10.06 C-26.48 8.51 -31.15 6.99 -35.82 5.49 C-38.2 4.72 -40.58 3.95 -43.04 3.16 C-45.1 2.49 -47.15 1.83 -49.28 1.15 C-54.16 -0.72 -54.16 -0.72 -59.16 -4.72 C-58.83 -6.37 -58.5 -8.02 -58.16 -9.72 C-42.49 -17.55 -15.31 -4.78 0 0 Z "
         fill="#642E1A"
         transform="translate(1047.16015625,588.71875)" />
    </g>
  </g>
</svg>
