<?xml version="1.0" encoding="UTF-8" standalone="no"?>
<!-- Generator: visioncortex VTracer 0.6.12 -->

<svg
   version="1.1"
   width="1536"
   height="1024"
   id="svg4"
   sodipodi:docname="calico-final.svg"
   inkscape:version="1.4.3 (0d15f75, 2025-12-25)"
   xmlns:inkscape="http://www.inkscape.org/namespaces/inkscape"
   xmlns:sodipodi="http://sodipodi.sourceforge.net/DTD/sodipodi-0.dtd"
   xmlns="http://www.w3.org/2000/svg"
   xmlns:svg="http://www.w3.org/2000/svg">
  <sodipodi:namedview
     id="namedview4"
     pagecolor="#ffffff"
     bordercolor="#000000"
     borderopacity="0.25"
     inkscape:showpageshadow="2"
     inkscape:pageopacity="0.0"
     inkscape:pagecheckerboard="0"
     inkscape:deskcolor="#d1d1d1"
     inkscape:zoom="1.4142136"
     inkscape:cx="509.11687"
     inkscape:cy="459.97295"
     inkscape:window-width="3440"
     inkscape:window-height="1351"
     inkscape:window-x="-9"
     inkscape:window-y="-9"
     inkscape:window-maximized="1"
     inkscape:current-layer="g8" />
  <defs
     id="defs1">
    <style
       id="style1">
    .breathe {
      transform-origin: 768px 960px;
      animation: breathe 3.8s infinite ease-in-out;
    }
    @keyframes breathe {
      0%, 100% { transform: scale(1, 1) translateY(0); }
      50% { transform: scale(1.02, 0.98) translateY(0.3px); }
    }
    #eye-sockets, #eye-pupils, #eye-highlights {
      transform-origin: 725px 495px;
      animation: blink 5s infinite ease-in-out;
    }
    @keyframes blink {
      0%, 7%, 100% { transform: scaleY(1); }
      3.5% { transform: scaleY(0.05); }
    }
    .tail-sway {
      transform-origin: 1200px 620px;
      animation: tail-sway 4s infinite ease-in-out;
    }
    @keyframes tail-sway {
      0%, 100% { transform: rotate(0deg); }
      35% { transform: rotate(6deg); }
      75% { transform: rotate(-4deg); }
    }
  </style>
  </defs>
  <g
     class="breathe"
     id="g8">
    <path
       id="base-head"
       style="display:inline"
       d="m 142.60742,43.095703 -76.369139,7.070313 -57.9824216,21.21289 -49.4960934,20.50586 -67.882816,53.033204 -31.11328,31.11328 -41.71875,55.1543 -16.26367,26.16406 -0.77148,0.50781 c -2.4e-4,5.7e-4 2.3e-4,0.001 0,0.002 -12.42018,30.4608 -19.37146,63.51701 -21.25977,96.33007 -0.11,2.59 -0.21055,5.1111 -0.31055,7.6211 -14.28,-2.48 -28.54,-2.41 -43,-2 -3,1 -3,1 -6,5 0,6 0,6 1,8 6.64,3.99 6.64094,3.98867 26.71094,5.63867 2.6,0.16 5.13016,0.33023 7.66016,0.49023 2.65,0.17 5.20929,0.33977 7.77929,0.50977 1.99,0.12 3.91961,0.24133 5.84961,0.36133 -0.11,6.15 0.0104,12.08898 0.65039,18.20898 0.29,2.05 0.56961,4.05102 0.84961,6.04102 0.28,2.09 0.55985,4.11867 0.83985,6.13867 0.22,1.57 0.44015,3.09133 0.66015,4.61133 -12.3,2.63 -24.2,4.83 -34,13 v 7 l 3,3 c 8.03,0.61 15.11055,-1.22102 22.81055,-3.29102 1.62,-0.45 3.18,-0.89008 4.75,-1.33008 1.64,-0.46 3.23031,-0.90961 4.82031,-1.34961 1.23,-0.35 2.41914,-0.68929 3.61914,-1.02929 0,18.16 15.34071,42.16984 25.47071,56.58984 0.86,1.16 1.68929,2.29016 2.52929,3.41016 22.1,30.05 52.75071,52.90992 86.470706,68.41992 0.428316,0.19274 0.851087,0.38176 1.271485,0.57031 h 0.002 l 28.705078,-5.4668 h 17.677734 l 20.50586,-2.12109 36.0624996,9.19141 43.1347654,9.90039 36.0625,6.36328 44.546882,4.94922 35.35547,1.41406 35.35546,2.12109 22.62696,-0.70703 34.64843,-1.41406 45.25391,-5.65625 31.11328,-2.82812 45.25586,-7.7793 70.70899,-20.50586 56.57031,-33.93945 40.30469,-41.72071 16.9707,-31.82031 16.26367,-40.30469 4.94922,-13.43359 1.02344,-0.64063 c -0.22069,-1.92146 -0.23228,-2.01341 -0.29883,-2.5625 0.26,-6.32 0.70031,-12.60039 0.0703,-18.90039 -0.21,-1.4 -0.41133,-2.7689 -0.61133,-4.1289 -2.28,-17.52 -5.94,-34.08 -11,-51 -1.21538,-3.81246 -1.65194,-5.18387 -2.09765,-6.99805 l -16.07813,-35.27148 -26.16211,-41.71875 -23.33398,-24.75 -68.58989,-50.9102 L 398.58008,126.5332 378.07422,110.97852 341.30469,85.521484 310.89844,69.964844 267.76367,56.53125 211.19531,45.923828 Z"
       transform="translate(600.5625,154.1875)"
       fill="#fcf4e3" />
    <path
       id="base-body"
       style="display:inline"
       d="m 584.54883,387.45703 -4.94922,12.01953 -10.60742,31.11328 -21.91992,44.54688 -79.19727,43.8418 -61.51758,21.91992 -72.125,11.31445 -126.57226,12.01953 -96.16602,4.24414 -68.589843,-2.12304 -74.246094,-12.01954 -37.476562,0.70704 -26.869141,4.94921 -0.0332,0.30274 c 0.386835,0.17282 0.772943,0.34548 1.160156,0.51758 -0.51,1.36 -1.000234,2.68023 -1.490234,3.99023 -0.096,0.31718 -0.188132,0.63547 -0.277344,0.95508 -5.54e-4,0.002 -0.0014,0.004 -0.002,0.006 l -1.876953,16.88281 c 0.05648,2.02168 0.196584,4.06155 0.414062,6.11133 l 0.002,0.006 4.22461,19.3125 18.154297,43.0332 1.533203,3.06446 24.859375,35.21874 26.871093,31.11329 23.3339849,19.79882 23.3339841,6.36329 24.042969,3.53515 19.091797,-2.12109 17.677734,-4.94922 11.3125,-7.07031 7.072266,-10.60743 4.94922,-15.55664 27.57617,4.24219 16.26367,3.53711 16.9707,3.53516 9.19336,9.89844 9.19141,10.60742 12.02148,10.60742 16.97071,4.94922 14.14062,2.12109 14.14258,-0.70703 18.38476,-2.82812 21.2129,-6.36524 18.38476,-10.60547 9.19336,-5.65625 11.31445,-3.53711 19.0918,0.70703 h 30.4043 l 7.77929,-2.12109 19.79883,-0.70703 10.60547,12.72851 33.94141,12.02149 30.40625,-2.83008 33.9414,-3.53516 19.0918,-13.43554 21.21289,-9.19141 39.59766,-14.84961 37.47656,-24.74804 21.91992,-19.0918 12.02149,-26.16406 10.60742,-26.16211 15.55468,-40.30469 v -29.6995 l -7.07031,-34.64844 -8.48437,-19.09179 -14.14258,-38.89063 -12.72852,-21.21289 -6.36328,-6.36328 -25.45703,-21.92188 -26.16211,-12.72656 z"
       transform="translate(600.5625,154.1875)"
       fill="#fcf4e3" />
    <g
       class="tail-sway"
       id="g1">
      <path
         id="outline-tail"
         d="m 750.51953,289.51758 c -20.32174,0.19428 -37.35008,6.57297 -54.08008,20.29297 -16.49,16.76 -20.43953,36.07867 -22.51953,58.63867 -0.8,9.08 -1.41047,17.71133 -4.48047,26.36133 -5.86048,13.19093 -13.32024,22.68654 -26.62109,28.42578 L 605,445 l 25,25 26.69727,-19.875 10.80664,27.91992 8.10547,21.61524 7.20507,22.51562 -24.74001,30.26531 0.15384,13.36062 -0.99038,12.20755 c 0,0 38.94018,-13.90621 0.72249,15.85134 0,0 -2.80963,0.73559 15.51654,-17.6355 22.57381,-4.71199 58.07967,-21.2834 76.95276,-34.13526 43,-30.63 69.85976,-78.10898 78.75976,-129.70898 4.79,-33.3 1.68,-66.77031 -18.75,-94.57031 -13.96,-15.58 -30.36,-25.08 -51,-28 -3.04625,-0.22125 -6.01681,-0.32073 -8.91992,-0.29297 z"
         transform="translate(600.5625,154.1875)"
         fill="#86432d"
         sodipodi:nodetypes="scccccccccccccccccccs" />
    </g>
    <g
       class="tail-sway"
       id="g3">
      <path
         id="tail-outer"
         d="M0 0 C14.25 11.97 19.62 28.97 21.53 46.97 C24.3 88.64 11.78 134.43 -15 167 C-19.87 172.47 -24.9 177.75 -30 183 C-31.46 184.57 -32.93 186.13 -34.44 187.75 C-49.46 201.74 -81.12 227 -103 227 C-103.05 226.17 -103.05 226.17 -103.33 221.98 C-105.68 188.77 -111.51 152.87 -133 126 C-133 125.01 -133 124.02 -133 123 C-131.23 122.13 -129.45 121.27 -127.62 120.38 C-111.16 111.99 -102.66 98.14 -97 81 C-94.25 70.31 -92.95 60.37 -92.62 49.38 C-91.73 29.29 -86.98 13.79 -72 0 C-49.89 -15.48 -21.96 -15.95 0 0 Z "
         fill="#EDAF68"
         transform="translate(1388,472)" />
    </g>
    <g
       class="tail-sway"
       id="g4">
      <path
         id="tail-mid"
         d="m 1286.7711,561.63683 c 19.42,-0.79 39.92,11.65 54,24 6.29,5.87 11.31,11.79 16,19 0.45,0.69 0.45,0.69 2.75,4.19 3.01,6.44 4.03,12.82 5.25,19.81 0.41,1.65 0.83,3.3 1.25,5 0.75,4 0.75,4 -0.25,11 -2.81,3.69 -2.81,3.69 -7,8 -1.79,1.9 -3.59,3.79 -5.44,5.75 -15.04,14.88 -55.9204,44.75257 -78.5204,44.75257 -0.05,-0.83 -1.3237,-2.74049 -1.6037,-6.93049 -2.35,-33.21 -8.4984,-68.47317 -29.9884,-95.34317 0,0 7.5818,-5.79501 11.4299,-10.39624 12.2187,-9.43132 24.0926,-15.45267 32.1226,-28.83267 z"
         fill="#ecad66"
         sodipodi:nodetypes="cccccccccccccc" />
    </g>
    <g
       class="tail-sway"
       id="g5">
      <path
         id="tail-tip"
         d="M0 0 C16.78 11.84 22.94 23.59 27.56 43 C27.81 44.57 28.06 46.13 28.31 47.75 C28.62 49.69 28.93 51.63 29.25 53.62 C29.33 61.03 27.59 65.13 24.31 71.75 C23.73 72.94 23.15 74.12 22.55 75.35 C17.03 86.18 10.9 97.08 1.31 104.75 C1.21 102.83 1.11 100.91 1 98.94 C0.38 92.47 -0.8 86.94 -2.69 80.75 C-3.02 79.6 -3.02 79.6 -4.69 73.75 C-14.19 51.87 -33.84 36.81 -55.6 28.2 C-62.87 25.69 -70.08 23.9 -77.69 22.75 C-77.25 21.12 -76.82 19.49 -76.38 17.81 C-74.69 10.75 -74.69 10.75 -74.1 6.27 C-73.9 4.76 -73.7 3.25 -73.5 1.69 C-73.34 0.25 -73.18 -1.18 -73.02 -2.66 C-71.69 -6.25 -71.69 -6.25 -68.07 -8.12 C-66.63 -8.49 -65.18 -8.87 -63.69 -9.25 C-62.41 -9.64 -61.13 -10.02 -59.81 -10.42 C-39.58 -14.5 -17.72 -10.12 0 0 Z "
         fill="#FDF3DB"
         transform="translate(1366.6875,538.25)" />
    </g>
    <g
       class="ear-anim"
       id="g2">
      <path
         id="base-ear-left"
         style="display:inline"
         d="m -144.31641,-64.642578 c -11.25085,-0.165117 -21.70898,1.914062 -30.80273,7.023437 -22.74,17.61 -22.74141,17.61 -39.19141,96.5 -13.19,65.410001 -25.34,158.919691 13.75,217.929691 h 2 c -0.45651,1.10622 -0.90366,2.21508 -1.3457,3.32812 l 3.10156,0.7461 16.26367,-33.23438 30.40625,-39.59766 45.25391,-41.01367 68.589844,-44.54687 L 7.5488281,84.107422 69.775391,65.015625 79.164062,47.320312 c -3.90186,0.869567 -7.806448,1.711626 -11.724609,2.490235 -4,-2 -3.999765,-2.000781 -7.509765,-4.800781 C 40.759687,28.899766 20.74,14.03 0,0 -31.93125,-21.068125 -95.562725,-63.92707 -144.31641,-64.642578 Z"
         transform="translate(600.5625,154.1875)"
         fill="#fcf4e3" />
    </g>
    <path
       id="outline-body"
       d="m 585.99414,382.96875 -4.94922,14.02148 0.94141,2.82422 c 8.02301,0.0601 9.1676,1.10622 29.13281,19.36524 32.18,31.65 51.4507,71.76078 52.4707,117.30078 0.25,47.03 -9.88992,95.12898 -43.66992,129.95898 -1.18,1.15 -2.33047,2.2611 -3.48047,3.3711 -19.62,19.11 -42.01,32.25945 -68.25,40.18945 -4.77,1.36 -4.77,1.36055 -8.75,2.81055 -4,4 -3.99851,3.99976 -7.22851,6.00976 -31.05,16.61 -68.46149,30.08024 -103.77149,19.99024 -9.3,-4.23 -14.07,-8.44 -18,-18 -1.04,-6.61 0.15,-9.33055 3,-15.56055 1.02,-1.85 2.01,-3.63945 3,-5.43945 h -5 c -6,2 -6,2 -11,7 -1.31,2.35 -2.65,4.68 -4,7 -17.77,8.89 -45.83,8.65 -65,6 0.78,-1.31 1.55055,-2.5911 2.31055,-3.8711 6.07,-11.58 7.42945,-22.4889 3.68945,-35.1289 l -5,-1 c -2.82,15.97 -8.31031,27.27945 -18.82031,39.68945 -17.87,18.31 -38.86961,30.69953 -64.84961,31.51953 -21.66,0.12 -40.16953,-1.57867 -56.51953,-17.13867 -6.77,-8.99 -7.26055,-15.92031 -6.81055,-27.07031 3.63,-14.54 11.8311,-23.35 22.8711,-32.75 4.68,-3.85 6.8489,-5.55 9.1289,-11.25 h -8 c -14.75,6.96 -27.5,17.82 -37,31 -2.17,5.58 -3.82,10.63 -8,15 -5.2,0.81 -9.33,0.15875 -14.5,-0.78125 -1.87,-0.41 -3.69,-0.81875 -5.5,-1.21875 -10.04,-1.68 -19.84859,-3.49055 -29.55859,-6.56055 -6.45,-2.11 -12.85141,-3.86945 -19.441407,-5.43945 0.31,10.89 -0.04859,17.33031 -7.058594,26.07031 -9.44,9.43 -18.711015,13.42 -32.041015,14.25 -23.36,0.5 -45.110703,-5.88 -62.7207034,-21.75 -1.08,-1.22 -2.1296875,-2.39031 -3.1796875,-3.57031 -3.5000001,-3.7 -3.4994531,-3.69969 -4.1894531,-4.42969 -30.64,-35.42 -60.250547,-87.25031 -57.810547,-135.57031 2.86,-5.72 6.569688,-7.7811 12.179688,-10.6211 2.972124,-1.46756 4.111831,-2.03023 5.017578,-2.71484 l -1.326172,-0.0762 -37.826172,4.50195 h -1.078125 c -0.49771,1.3278 -0.978007,2.61973 -1.457031,3.90039 -7.039999,23.26 4.300703,53.17985 14.470703,74.08984 0.68,1.33 1.349531,2.62993 2.019531,3.91993 l 5.546875,11.08984 2.113281,2.4668 6.467304,11.49833 10.161039,16.41964 15.793532,21.61523 8.904917,11.44347 20.8157865,18.27723 9.90625,7.20508 14.4101565,4.50195 11.707031,4.50391 21.615234,1.80078 18.494704,-0.95525 11.466516,-3.4159 11.466515,-3.4159 11.708986,-7.52349 8.10547,-9.90625 3.60156,-9.00586 h 3.60351 l 11.70704,1.80078 18.91406,2.70117 18.01172,3.60351 1.80078,3.60157 2.01143,5.29994 3.39287,5.50865 5.40429,5.40234 13.50781,8.10547 16.21094,6.30469 18.01367,2.70313 13.50782,0.90039 h 12.60937 l 18.91211,-1.80274 11.70899,-2.70117 14.41015,-6.30469 13.50781,-7.20508 11.65413,-7.9409 12.0274,-0.42812 19.54017,0.42812 16.27457,-0.31841 19.38632,-3.33801 6.8318,9.79654 10.38924,7.25994 13.49904,3.86512 17.12206,2.49442 33.98569,-0.31841 26.61771,-2.49443 16.21289,-4.50195 23.42479,-11.81674 10.58917,-9.37036 3.60156,-1.0101 6.51339,-0.31842 21.61523,-6.30469 9.00586,-4.50195 20.7697,-11.0173 15.25569,-8.79716 7.36769,-5.23973 7.94286,-8.27003 10.80664,-9.00586 0.56445,-0.36914 h -2.51758 C 668.82945,648.25055 681.17,618.61 685.5,584.5 c 0.77103,-7.06619 0.78978,-7.23574 1.85938,-12.30664 l -0.041,-0.48438 -0.90039,-13.50976 V 540.1875 l -2.70313,-21.61523 -6.30468,-27.01758 -6.30274,-16.21094 -9.00586,-19.81445 -8.10742,-14.41016 -14.4082,-18.01172 -0.44727,-1.28711 c -0.26957,-0.23356 -0.38943,-0.33563 -0.59961,-0.51953 -12.92,-14.52 -29.63961,-25.27023 -47.09961,-33.49023 l -5,-1 c -0.35426,-3.08584 -0.37886,-3.29286 -0.44531,-3.8418 z"
       transform="translate(600.5625,154.1875)"
       fill="#86432d"
       sodipodi:nodetypes="cccccccccccccccccccccccccccccccccccccccccccccccccccccccccccccccccccccccccccccccccccccccccccccccccccccccccccccccccccccccccccc" />
    <path
       id="outline-head"
       d="M 150.25977 41.140625 C 134.18102 41.29375 118.12016 42.287188 102.16016 44.179688 C 98.630156 44.599688 98.629453 44.599453 97.939453 44.689453 C 93.339476 45.215403 88.740725 45.75546 84.158203 46.408203 C 84.143255 46.410332 84.128229 46.411931 84.113281 46.414062 L 81.417969 46.814453 C 81.414106 46.815323 81.410112 46.815536 81.40625 46.816406 C 76.757485 47.86373 72.10817 48.882789 67.439453 49.810547 C 67.266312 49.723976 67.102121 49.640012 66.943359 49.560547 L 45.179688 56.556641 L 43.666016 56.814453 C 43.92701 57.141882 44.185092 57.473839 44.439453 57.810547 C 29.019453 62.700547 14.370547 68.619453 0.060546875 76.189453 C -2.7994531 77.739453 -5.6805469 79.290547 -8.5605469 80.810547 C -12.740547 82.480547 -12.740547 82.480547 -13.560547 82.810547 L -15.560547 89.810547 C 57.039453 63.800547 129.5993 52.390703 206.7793 61.220703 C 208.2993 61.400703 209.78 61.58 211.25 61.75 C 217.72 62.47 224.93945 62.150547 230.43945 65.810547 C 229.26945 65.750547 228.13 65.689141 227 65.619141 C 222.44 66.809141 222.44055 66.81 218.06055 71.5 C 216.49055 73.65 214.95945 75.730547 213.43945 77.810547 C 209.93945 82.390547 206.54945 86.970547 203.43945 91.810547 C 190.95945 117.31055 194.41945 144.81945 202.93945 170.93945 C 219.88945 217.08945 259.15047 249.83063 302.23047 271.39062 C 303.51047 272.02062 304.76 272.64 306 273.25 C 329.44 284.85 352.54 294.69914 378 301.11914 C 428.76 312.67914 478.05055 307.14945 522.81055 279.93945 C 526.61055 277.36945 530.42945 275.04055 534.43945 272.81055 C 538.43945 278.81055 538.44078 278.80922 540.80078 283.94922 C 564.97078 341.68922 571.25055 405.80914 549.06055 465.11914 C 548.17055 467.39914 547.29945 469.61055 546.43945 471.81055 C 548.43945 470.81055 548.44 470.81086 552 467.88086 C 571.65 449.89086 578.12969 429.82953 580.17969 403.76953 C 580.25969 402.42953 580.34945 401.12055 580.43945 399.81055 C 581.16686 399.81055 581.83896 399.80966 582.46875 399.81836 L 586.44922 387.08203 L 586.48633 386.82031 L 586.43945 386.81055 C 586.05945 383.50055 586.06047 383.49984 585.98047 382.83984 C 586.24047 376.51984 586.68078 370.23945 586.05078 363.93945 C 585.84078 362.53945 585.63945 361.17055 585.43945 359.81055 C 583.15945 342.29055 579.49945 325.73055 574.43945 308.81055 C 573.02545 304.37505 572.66505 303.24064 572.11914 300.87305 C 571.45165 299.51308 570.82072 298.22187 570.23828 297.02148 C 567.89398 292.18994 565.4348 287.41462 563.0332 282.61133 C 560.3313 277.20764 557.50613 271.86404 554.92773 266.40039 C 551.14213 258.37874 548.02584 250.04736 544.11914 242.08398 C 540.21474 234.12516 536.10252 226.25161 531.51172 218.66797 C 525.13002 208.12603 518.39777 197.74655 510.79688 188.04688 C 503.06177 178.17602 495.10578 168.28323 485.58008 160.12695 C 472.18918 148.66116 470.03196 149.82285 462.16406 144.81641 C 449.65306 136.85553 437.24069 128.70921 424.33789 121.40039 C 415.22549 116.23863 405.68399 111.87463 396.41992 106.99023 C 384.65729 100.78845 373.17365 94.054525 361.29492 88.078125 C 351.81725 83.309735 342.34194 78.467039 332.47461 74.568359 C 320.73153 69.928539 297.35156 61.960938 297.35156 61.960938 L 297.38086 61.564453 C 296.35649 61.564032 295.29163 61.320732 293.17969 60.839844 C 246.88969 47.782344 198.49602 40.68125 150.25977 41.140625 z M -22.560547 86.810547 C -34.900547 92.010547 -46.329453 97.579141 -57.439453 105.11914 C -59.179453 106.37914 -60.870547 107.60055 -62.560547 108.81055 C -70.820547 114.33055 -78.800547 119.85086 -86.310547 126.38086 C -88.370547 128.22086 -90.450547 130.03055 -92.560547 131.81055 L -96.560547 133.81055 L -96.560547 135.81055 C -98.280547 137.24055 -99.949141 138.62 -101.61914 140 C -107.55914 144.81 -107.56 144.81 -111.25 148.5 L -114.56055 151.81055 C -125.72055 160.09055 -135.47906 169.43047 -144.78906 179.73047 C -145.72906 180.78047 -146.65055 181.80055 -147.56055 182.81055 C -156.76055 192.64055 -164.80055 203.12914 -171.81055 214.61914 C -175.19055 220.19914 -178.77055 225.52055 -182.56055 230.81055 C -182.68159 230.68966 -182.80087 230.57019 -182.91797 230.45312 L -198.88867 259.19531 L -199.73438 259.70312 C -211.68859 289.65165 -218.39973 322.03745 -220.25 354.18945 C -220.36 356.77945 -220.46055 359.30055 -220.56055 361.81055 C -234.84055 359.33055 -249.10055 359.40055 -263.56055 359.81055 C -266.56055 360.81055 -266.56055 360.81055 -269.56055 364.81055 C -269.56055 370.81055 -269.56055 370.81055 -268.56055 372.81055 C -261.92055 376.80055 -261.91961 376.79922 -241.84961 378.44922 C -239.24961 378.60922 -236.71945 378.77945 -234.18945 378.93945 C -231.53945 379.10945 -228.98016 379.27922 -226.41016 379.44922 C -224.42016 379.56922 -222.49055 379.69055 -220.56055 379.81055 C -220.67055 385.96055 -220.55016 391.89953 -219.91016 398.01953 C -219.62016 400.06953 -219.34055 402.07055 -219.06055 404.06055 C -218.78055 406.15055 -218.5007 408.17922 -218.2207 410.19922 C -218.0007 411.76922 -217.78055 413.29055 -217.56055 414.81055 C -229.86055 417.44055 -241.76055 419.64055 -251.56055 427.81055 L -251.56055 434.81055 L -248.56055 437.81055 C -240.53055 438.42055 -233.45 436.58953 -225.75 434.51953 C -224.13 434.06953 -222.57 433.62945 -221 433.18945 C -219.36 432.72945 -217.76969 432.27984 -216.17969 431.83984 C -214.94969 431.48984 -213.76055 431.15055 -212.56055 430.81055 C -212.56055 448.97055 -197.21984 472.98039 -187.08984 487.40039 C -186.22984 488.56039 -185.40055 489.69055 -184.56055 490.81055 C -162.46055 520.86055 -131.80984 543.72047 -98.089844 559.23047 C -96.889844 559.77047 -95.730547 560.29055 -94.560547 560.81055 C -94.678584 561.12531 -94.794014 561.43719 -94.910156 561.74805 L -55.689453 556.39844 L -54.751953 556.75195 C -53.993274 556.24321 -53.49633 555.74633 -52.560547 554.81055 C -79.610547 543.94055 -106.54055 529.23055 -129.06055 510.56055 C -130.93055 508.95055 -132.75055 507.38055 -134.56055 505.81055 C -137.27055 503.53055 -139.94055 501.20055 -142.56055 498.81055 C -146.74055 493.80055 -146.74055 493.80055 -147.56055 492.81055 C -158.43055 481.29055 -167.61023 469.38094 -175.24023 455.46094 C -179.14023 447.65094 -189.42055 432.40055 -186.56055 423.81055 C -184.20055 423.30055 -181.90914 422.81055 -179.61914 422.31055 C -172.10914 420.94055 -164.13055 420.38055 -158.56055 414.81055 L -159.56055 408.81055 C -164.43055 407.59055 -168.53055 407.64055 -173.56055 407.81055 C -180.00055 408.82055 -185.15055 410.09055 -191.56055 408.81055 C -193.58055 402.34055 -193.58055 402.34055 -194.56055 381.81055 C -189.44055 381.81055 -185.29055 382.67055 -180.31055 383.81055 C -172.49055 385.61055 -165.45055 386.78055 -157.56055 384.81055 C -158.40055 378.97055 -158.40055 378.97055 -158.56055 377.81055 L -164.56055 374.81055 C -166.92055 374.15055 -169.21 373.51086 -171.5 372.88086 C -174.17 372.11086 -176.86055 371.43055 -179.56055 370.81055 C -186.35055 370.62055 -188.19055 370.27055 -194.56055 366.81055 C -195.37055 361.51055 -195.36906 361.51094 -195.53906 360.46094 C -195.77906 290.28094 -168.91 222.27 -126.25 167.25 C -125 165.74 -123.78055 164.28055 -122.56055 162.81055 C -98.130547 131.75055 -61.130469 111.13086 -25.980469 94.380859 C -24.140469 93.500859 -22.350547 92.660547 -20.560547 91.810547 L -22.560547 89.810547 L -22.560547 86.810547 z "
       fill="#86432D"
       transform="translate(600.5625,154.1875)" />
    <g
       class="ear-anim"
       id="g6">
      <path
         id="outline-ear-left"
         d="M -144.31641 -64.642578 C -155.56726 -64.807695 -166.02539 -62.728516 -175.11914 -57.619141 C -197.85914 -40.009141 -197.86055 -40.009141 -214.31055 38.880859 C -227.50055 104.29086 -239.65055 197.80055 -200.56055 256.81055 L -198.56055 256.81055 C -199.046 257.98688 -199.5231 259.16752 -199.99219 260.35156 L -198.88867 260.99609 L -180.875 229.47461 L -169.2168 210.48828 C -170.09616 211.85101 -170.96162 213.22768 -171.81055 214.61914 C -175.19055 220.19914 -178.77055 225.52055 -182.56055 230.81055 C -189.88055 223.50055 -189.88 223.50055 -195.75 190.06055 C -196.03 188.28055 -196.30055 186.54055 -196.56055 184.81055 C -202.42055 149.14055 -201.5093 110.96938 -197.5293 75.109375 C -196.7193 69.019375 -196.72055 69.020547 -196.56055 67.810547 C -192.20055 34.460547 -186.72055 -15.249453 -163.56055 -41.189453 C -107.45055 -57.219453 -23.449453 2.18 17.810547 34.5 L 24.439453 39.810547 C 31.198957 44.987247 37.889729 49.74818 43.267578 56.320312 L 66.513672 49.345703 C 63.416061 47.790154 63.145076 47.574748 59.929688 45.009766 C 40.759687 28.899766 20.74 14.03 0 0 C -31.93125 -21.068125 -95.562725 -63.92707 -144.31641 -64.642578 z "
         transform="translate(600.5625,154.1875)"
         fill="#86432D" />
      <path
         id="outline-ear-right"
         d="M 555.43945,-38.189453 C 471.69945,-40.399453 377.65906,6.79 311.28906,53.75 c -3.27,2.37 -6.55961,4.720547 -9.84961,7.060547 -0.68621,0.171554 -1.25362,0.312937 -1.74609,0.425781 -0.35256,0.472119 -0.54102,0.72461 -0.54102,0.72461 l 33.32227,18.912109 22.51562,14.410156 37.82618,26.117187 50.43554,36.02539 52.23438,44.13086 30.62109,27.91797 17.11133,21.61523 8.23828,28.19141 20.25,19.75 c -0.0818,-0.37295 -7.54578,6.97281 -7.64258,6.5293 1.02,-1.4 9.385,-10.5111 10.375,-11.8711 4,-3.88 4,-3.87945 6.5,-7.93945 0.85,-1.68 1.67,-3.30945 2.5,-4.93945 37.19,-73.01 34.71078,-178.00039 16.30078,-255.900394 -0.44,-1.73 -0.87078,-3.419609 -1.30078,-5.099609 -3.65,-14.5600001 -8.18,-28.5900001 -15,-42 -7.88,-10.47 -15.19,-13.77 -28,-16 z"
         transform="translate(600.5625,154.1875)"
         fill="#86432d"
         sodipodi:nodetypes="cccccccccccccccccccccc" />
    </g>
<path
       id="patch-head-right"
       style="display:inline"
       d="m -335.01953,80.019531 c -6.38,1.25 -6.38,1.250938 -12.5,9.460938 -0.84,1.2 -1.66047,2.359531 -2.48047,3.519531 -3.5,4.57 -6.9,9.14 -10,14 -12.48,25.49 -9.02,52.99914 -0.5,79.11914 17.07,46.47 56.91906,79.75094 100.28906,101.46094 1.28,0.63 2.53149,1.23937 3.77149,1.85937 25.43,12.58 50.50883,22.98055 78.29883,29.31055 48.22,9.84 97.299839,3.85969 139.089839,-23.32031 3.31,-2.19 5.805781,-4.06969 9.175781,-6.17969 l 2.75,-1.625 c 4.94,0.19 -29.838865,-42.44016 -28.125,-43.375 l 8.398438,-4.58008 -22.960938,-24.05664 -15.910156,-11.66601 -25.101564,-26.51758 -22.6289,-19.79883 -17.67774,-15.91016 -14.14062,-6.71679 -14.14258,-8.83789 -20.10156,-6.13477 L -200,121 c -5.44,0 -5.43914,-6.3e-4 -15.61914,-4.89062 -35.21,-17.000005 -79.69039,-36.239849 -119.40039,-36.089849 z"
       transform="translate(1163,139)"
       fill="#ecad66" />
<path
       id="patch-head-left"
       style="display:inline"
       d="M 214,77 C 187.57,76.19 160.73031,78.180625 134.82031,83.640625 132.84031,84.100625 130.92,84.55 129,85 105.17,90.56 82.009453,97.349766 58.939453,105.50977 56.579453,106.35977 54.29,107.18 52,108 L 53.119141,104.08398 45,106.45117 V 108 l 2,2 C 30.22,117.86 13.940938,125.80953 -1.5390625,136.01953 -3.0590625,137.02953 -4.53,138.02 -6,139 -19.2,147.77 -32.910547,156.45055 -43.810547,168.06055 -44.900547,169.40055 -45.95,170.7 -47,172 c -24.52,25.85 -47.5,60.84 -58,95 6.15,2.46 6.15,2.46 19,4 66.52,3.75 130.110391,-25.53078 179.900391,-68.30078 C 94.960391,201.77922 95.98,200.89 97,200 c 6.65,-5.6 12.76992,-11.6393 18.91992,-17.7793 1.38,-1.39 2.73008,-2.74156 4.08008,-4.10156 12.12,-12.14 24.25078,-24.25992 35.55078,-37.16992 2.09,-2.4 4.19985,-4.76914 6.33984,-7.11914 0.95,-1.02 1.86883,-2.01953 2.79883,-3.01953 1.06,-1.14 2.09133,-2.25133 3.11133,-3.36133 C 172.88078,121.96922 177.97,116.51 183,111 c 6.92,-8.09 14.36,-15.6 22,-23 4.49,-3.85 7.58,-5.33 9,-11 z M -21.267578,146.51953 -21.761719,146.8418 -27.607422,152 H -27 c 1.864258,-1.86426 3.77601,-3.69114 5.732422,-5.48047 z m -8.3125,7.22266 -16.222656,14.31445 -5.125,5.5918 c 1.422401,-1.14396 2.385313,-2.10602 5.238281,-4.95899 L -41,164 c 3.68,-2.99 7.35,-5.99 11,-9 z"
       transform="translate(533,136)"
       fill="#ebac66" /><path
       id="belly"
       d="M0 0 C1.38 1.13 2.76 2.27 4.19 3.44 C39.88 31.45 84 42.76 128.94 38.54 C143.22 36.25 157.51 32.37 170 25 C168.25 60.59 148.94 92.9 125 118 C123.89 119.2 122.77 120.39 121.62 121.62 C103.19 138.79 80.62 150.39 56.69 157.84 C51.95 159.33 48.27 160.8 44.3 163.82 C17.67 183.54 -20.84 192.05 -53.44 188.25 C-62.64 186.18 -71.27 182.94 -76.81 174.94 C-79.98 169.24 -80.5 165.53 -80 159 C-77.56 153.56 -77.56 153.56 -75 149 C-74.67 148.34 -74.34 147.68 -74 147 C-81.15 147.61 -85.17 149.03 -90.19 154.44 C-93 158 -93 158 -95 162 C-114.34 168.79 -138.86 169.78 -159 167 C-157.21 163.52 -155.42 160.03 -153.63 156.55 C-149.5 147.56 -150.24 137.32 -153 128 C-154.65 127.67 -156.3 127.34 -158 127 C-158.23 128.11 -158.46 129.22 -158.7 130.37 C-161.67 143.91 -165.92 153.34 -175 164 C-175.75 164.9 -175.75 164.9 -179.56 169.44 C-196.06 186.31 -217.21 197.41 -241.1 198.2 C-262.02 198.34 -278.61 196.98 -295.62 183.56 C-302.42 176.48 -304.81 170.66 -305.31 160.94 C-304.63 145.72 -297.27 135.66 -287 125 C-284.69 123.02 -282.35 121.06 -280 119.12 C-274 114 -274 114 -273 110 C-283.17 110 -288.54 113.35 -296.5 119.44 C-297.08 119.86 -297.08 119.86 -300 122 C-300.99 121.67 -301.98 121.34 -303 121 C-305.67 121.69 -308.31 122.48 -310.94 123.31 C-345.63 133.85 -376.74 129.04 -408.08 112.3 C-412.93 109.6 -417.66 106.81 -422.38 103.88 C-431.34 98.63 -439.54 95.8 -450 97 C-450.33 98.65 -450.66 100.3 -451 102 C-449.35 102.66 -447.7 103.32 -446 104 C-430.17 111.16 -419.06 118.97 -410.56 134.44 C-408.68 139.95 -408.76 143.32 -410 149 C-413.72 155.98 -418.66 158.55 -426 161 C-444.17 161.82 -458.95 161.24 -475 152 C-475 151.34 -475 150.68 -475 150 C-476.65 149.34 -478.3 148.68 -480 148 C-485.61 143.48 -490.5 138.63 -495 133 C-495 132.01 -495 131.02 -495 130 C-495.66 130 -496.32 130 -497 130 C-497 129.01 -497 128.02 -497 127 C-497.66 127 -498.32 127 -499 127 C-499.33 125.35 -499.66 123.7 -500 122 C-500.66 122 -501.32 122 -502 122 C-506.38 113.82 -509.97 105.78 -513 97 C-513.61 95.47 -514.23 93.95 -514.86 92.38 C-520.36 78.56 -525.32 64.41 -529 50 C-529.45 48.31 -529.91 46.62 -530.38 44.88 C-530.25 43.6 -530.13 42.32 -530 41 C-522.9 36.69 -514.3 35.71 -506.25 34 C-494.48 31.22 -494.48 31.22 -491 26 C-484.52 26 -480.56 26.83 -474.44 28.62 C-457.54 33.17 -440.3 35.51 -423 38 C-422.3 38.1 -422.3 38.1 -418.73 38.62 C-366.23 46.13 -310.66 49.4 -258 42 C-255.4 41.64 -252.8 41.27 -250.12 40.9 C-243.2 39.9 -236.3 38.82 -229.4 37.7 C-224.75 36.96 -220.09 36.24 -215.43 35.52 C-199.11 32.97 -182.97 30.28 -167 26 C-167.89 26.11 -167.89 26.11 -172.38 26.69 C-174.23 26.79 -176.09 26.89 -178 27 C-178.66 26.01 -179.32 25.02 -180 24 C-181.32 23.67 -182.64 23.34 -184 23 C-184 22.34 -184 21.68 -184 21 C-178.69 19.49 -175.47 18.91 -170 20 C-165 23 -165 23 -164 25 C-137.26 31.02 -109.29 25.64 -83 20 C-80.51 19.47 -78.02 18.94 -75.46 18.4 C-60.4 15.14 -45.63 11.32 -30.89 6.8 C-26.96 5.6 -23.01 4.47 -19.04 3.41 C-14 2 -14 2 -9.12 -0.31 C-5 -2 -5 -2 0 0 Z "
       fill="#FEF7E6"
       transform="translate(1091,707)" />
    <path
       id="shadow-light"
       d="m 0,0 c 6.92,-0.51 12.75,-0.63 19.56,0.77 5.87,5.49 8.76,11.72 12,19 19.89,31.89 41.42,59.63 78.5,71.37 23.98475,5.081584 48.24396,7.392079 72.5,-5.37 10.33,-6.89 15.6,-12.1 19,-24 5.91,0.66 11.67,1.69 17.5,2.87 10.17,2.05 20.25,2.94 30.6,3.54 1.62,0.52 3.24,1.05 4.9,1.59 2.51,5.33 2.51,5.33 4,11 8.12,13.06 21.5,19.24 36,23 1.43,0.39 2.85,0.78 4.32,1.18 31.08,7.27 64.65,4.73 92.81,-10.5 6.41,-4.02 12.5,-8.31 17.87,-13.68 2.89,-0.15 5.79,-0.17 8.68,-0.13 1.8,0.02 3.6,0.03 5.45,0.05 l 11.28,0.15 c 13.79,0.12 27.41,-0.44 41.01,-2.86 1.18,-0.07 2.37,-0.14 3.58,-0.21 1.77,2.6 3.42,5.28 5,8 20,17.31 49.17,15.78 74,15 24.98,-1.87 54.29,-7.06 73.69,-24.13 5.58,-4.07 10.29,-5.45 16.98,-6.9 30.55,-6.86 61.98,-23.94 82.27,-47.97 6.06,-5 6.06,-5 13.75,-4.69 3.12,0.83 6.22,1.73 9.31,2.69 1.96,0.5 3.93,1 5.95,1.52 23.72,6.2 45.5,13.69 63.05,31.48 3.03,7.07 4.27,11.61 1.5,19 -17.26,27.62 -63.29,35.23 -92.5,42 -103.07,22.71 -209.81,28.34 -315,32 -2.09,0.07 -4.17,0.14 -6.33,0.22 -163.48,5.47 -348.05,4.23 -504.67,-47.22 -2,-0.64 -3.99,-1.27 -6.05,-1.92 -20.03,-6.59 -37.77,-14.36 -51.2,-31.15 -2.25,-5.07 -2.44,-8.43 -1.75,-13.93 7.8,-16.61 26.79,-24.06 43,-30 10.27,-3.25 20.61,-6.18 31,-9 1.75,-0.49 3.49,-0.97 5.29,-1.47 C -49.17,5.09 -24.51,2.91 0,0 Z"
       fill="#000000"
       opacity="0.15"
       transform="translate(510.4375,812.23437)"
       sodipodi:nodetypes="cccccccccccccccccccccccccccccccccccccccc" /><path
       id="chest"
       d="M0 0 C27.16 7.76 49.11 36.45 62.8 59.84 C80.84 93.94 89.56 137.78 81 176 C71.11 188.36 49.06 190.9 34 193 C-13.78 195.13 -55.65 181.88 -93 152 C-97.75 153.06 -97.75 153.06 -103 155 C-136.75 166.44 -171.59 175.61 -207 180 C-207.72 180.09 -207.72 180.09 -211.34 180.57 C-225.22 181.86 -240.41 182.31 -254 179 C-254.99 177.68 -255.98 176.36 -257 175 C-262.79 172.1 -267.68 173.37 -274 174 C-274 174.66 -274 175.32 -274 176 C-272.35 176.33 -270.7 176.66 -269 177 C-267.35 177.66 -265.7 178.32 -264 179 C-261.69 178.67 -259.38 178.34 -257 178 C-256.67 178.66 -256.34 179.32 -256 180 C-275.6 184.32 -295.12 188.13 -315 191 C-318.96 191.63 -322.92 192.27 -326.88 192.9 C-374.57 200.42 -422.9 201.24 -471 197 C-473.24 196.81 -475.49 196.61 -477.8 196.41 C-507.65 193.5 -538.35 189.75 -567.31 181.75 C-574 180 -574 180 -581 180 C-581.99 181.32 -582.98 182.64 -584 184 C-590 186.71 -596.23 188.1 -602.62 189.56 C-608.22 190.84 -613.55 192.18 -619 194 C-617.68 205.22 -614.6 215.35 -611 226 C-610.33 228 -609.66 229.99 -608.97 232.05 C-606.04 240.64 -603.18 248.93 -599 257 C-597.66 260.33 -596.33 263.66 -595 267 C-594.01 268.98 -593.02 270.96 -592 273 C-592 273.66 -592 274.32 -592 275 C-591.34 275 -590.68 275 -590 275 C-589.67 276.65 -589.34 278.3 -589 280 C-588.34 280 -587.68 280 -587 280 C-587 280.99 -587 281.98 -587 283 C-586.34 283 -585.68 283 -585 283 C-584.34 284.98 -583.68 286.96 -583 289 C-582.01 289.33 -581.02 289.66 -580 290 C-579.47 290.62 -579.47 290.62 -576.81 293.75 C-573.1 297.89 -569.76 300.23 -565 303 C-564.01 303.99 -563.02 304.98 -562 306 C-550.37 310.81 -541.14 313.3 -528.56 313.38 C-526.42 313.4 -524.28 313.43 -522.07 313.46 C-512.9 312.76 -508.47 310.47 -502 304 C-499.2 295.6 -499.89 291.29 -503.75 283.31 C-512.05 269.75 -523.85 263.2 -537.86 256.73 C-541 255 -541 255 -542 252 C-541.34 251.01 -540.68 250.02 -540 249 C-526.96 247.68 -516.1 253.09 -505.25 259.75 C-474.88 277.86 -445.02 285.9 -409.73 277.79 C-406.47 276.93 -403.22 276.04 -399.98 275.12 C-396 274 -396 274 -391 273 C-392.39 278.58 -395.69 280.23 -400 284 C-403.98 288.48 -407.39 292.43 -409.58 298.05 C-411.32 302.42 -412.75 305.58 -416 309 C-422.93 310.17 -429.21 308.51 -436 307 C-438.06 306.64 -440.11 306.28 -442.23 305.91 C-453.61 303.85 -464.48 301.19 -475.36 297.23 C-479 296 -479 296 -485 295 C-484.92 297.14 -484.84 299.29 -484.75 301.5 C-485.13 312.82 -489.08 318.08 -497 326 C-511.38 336.22 -528.51 336.99 -545.55 334.27 C-579.77 326.2 -600.28 301.73 -617.99 273.1 C-635.76 242.97 -654.5 206.07 -652 170 C-646.93 162.39 -641.39 159.36 -633 156 C-635.86 153.14 -639.09 152.14 -642.81 150.56 C-653.45 145.9 -663.97 140.88 -674 135 C-674 134.34 -674 133.68 -674 133 C-674.96 132.37 -674.96 132.37 -679.81 129.19 C-686 125 -686 125 -689 120 C-689 119.34 -689 118.68 -689 118 C-690.32 117.34 -691.64 116.68 -693 116 C-696.06 112.72 -699.05 109.38 -702 106 C-703.26 104.62 -704.52 103.24 -705.81 101.81 C-713 93.22 -713 93.22 -713 89 C-707.61 90.8 -703.93 92.73 -699.19 95.75 C-697.77 96.65 -696.35 97.55 -694.89 98.48 C-692.07 100.31 -689.28 102.17 -686.5 104.06 C-656.68 123.53 -621.62 136.77 -588 148 C-586.63 148.47 -585.25 148.93 -583.84 149.41 C-501.39 176.46 -410.35 186.49 -324 179 C-321.96 178.84 -319.92 178.69 -317.82 178.53 C-307.63 177.7 -297.98 176.28 -288 174 C-285.65 173.69 -283.3 173.38 -280.88 173.06 C-273.32 172.04 -265.96 170.66 -258.51 169.1 C-254 168.2 -249.5 167.39 -244.96 166.62 C-215.42 161.44 -186.56 153.06 -158 144 C-157.23 143.76 -157.23 143.76 -153.31 142.53 C-143.96 139.51 -135.2 135.99 -126.38 131.62 C-125.22 131.06 -125.22 131.06 -119.4 128.19 C-117.29 127.14 -115.18 126.08 -113 125 C-112.19 124.61 -112.19 124.61 -108.1 122.62 C-100.39 118.86 -93.14 114.76 -86 110 C-85.02 109.36 -85.02 109.36 -80.06 106.12 C-65.85 96.46 -53.68 86.51 -43 73 C-41.85 71.66 -40.69 70.32 -39.5 68.94 C-37 66 -37 66 -36 64 C-35.34 64 -34.68 64 -34 64 C-33.67 62.68 -33.34 61.36 -33 60 C-32.01 60 -31.02 60 -30 60 C-30.25 60.8 -30.25 60.8 -31.5 64.88 C-33 70 -33 70 -33 72 C-32.51 71.49 -32.51 71.49 -30 68.94 C-26 65 -26 65 -22 61.75 C-7.14 47.82 -1.52 25.94 -0.19 6.19 C-0.13 4.15 -0.06 2.1 0 0 Z "
       fill="#F9DFAB"
       transform="translate(1181,554)" />
    <path
       id="shadow-deep"
       d="m 0,0 c 5.29,-0.45 9.35,-0.55 14.48,0.81 4.96,4.64 7.76,10.09 11,16 1.88,2.56 3.82,5.08 5.81,7.56 0.91,1.14 1.82,2.27 2.76,3.45 0.8,0.98 1.6,1.97 2.43,2.99 0.53,0.65 0.53,0.65 3.19,3.94 20.43,22.25 47.75,31.61 77.26,33.32 20.82,0.54 39.4,-4.81 55.55,-18.26 2.55555,-3.577921 5.69762,-9.576039 7.47762,-15.796039 5.91,0.66 11.19238,2.486039 17.02238,3.666039 10.17,2.05 20.25,2.94 30.6,3.54 1.62,0.52 3.23,1.05 4.9,1.59 2.5,5.33 2.5,5.33 4,11 8.12,13.06 21.5,19.24 36,23 1.42,0.39 2.85,0.78 4.32,1.19 31.08,7.27 64.65,4.72 92.81,-10.5 6.41,-4.03 12.5,-8.32 17.87,-13.69 2.89,-0.15 5.79,-0.17 8.68,-0.13 1.8,0.02 3.6,0.03 5.45,0.05 3.76,0.05 7.52,0.1 11.28,0.16 13.79,0.11 27.41,-0.45 41.01,-2.87 1.18,-0.07 2.36,-0.14 3.58,-0.21 1.77,2.6 3.42,5.28 5,8 20,17.31 49.17,15.78 74,15 24.97,-1.87 54.29,-7.05 73.69,-24.13 5.57,-4.06 10.29,-5.45 16.98,-6.9 23.4,-5.25 43.56,-16.79 63.33,-29.97 17.37,0 42,6.57 56,17 4,4 4,4 5.19,7.75 -0.19,4.25 -0.19,4.25 -2.88,8.37 -20.79,18.68 -57.69,23.45 -84.31,27.88 -1.81,0.31 -3.63,0.62 -5.49,0.95 -56.04,9.59 -113.26,13.14 -170.01,15.65 -8.05,0.36 -16.09,0.87 -24.12,1.4 -5.8,0.35 -11.59,0.68 -17.38,1 -0.84,0.05 -0.84,0.05 -5.11,0.28 C 370.32,96.86 297.83,95.9 225.8,92.04 221.43,91.81 217.05,91.58 212.67,91.35 175.84,89.44 139.16,86.7 102.48,82.81 98.66,82.41 94.84,82.02 91.02,81.62 69.69,79.39 48.39,76.9 27.11,74.31 24.81,74.04 22.52,73.76 20.16,73.48 -58.8,63.7 -58.8,63.7 -86.52,42.81 c -3,-4 -3,-4 -3,-10 C -78.98,16.07 -51.36,10.34 -33.43,5.91 -22.33,3.42 -11.24,1.65 0,0 Z"
       fill="#000000"
       opacity="0.3"
       transform="translate(532.51953,839.19141)"
       sodipodi:nodetypes="ccccccccccccccccccccccccccccccccccccccccccccccc" />
    <path
       id="back-patch"
       d="M0 0 C27.16 7.76 49.11 36.45 62.8 59.84 C80.84 93.94 89.56 137.78 81 176 C71.11 188.36 49.06 190.9 34 193 C-17.02 195.28 -58.54 179.57 -98 148 C-103.5 147.55 -108.81 147.3 -114.31 147.25 C-115.82 147.22 -117.32 147.19 -118.87 147.16 C-122.58 147.09 -126.29 147.04 -130 147 C-126.66 144.77 -123.23 143.09 -119.62 141.31 C-106.84 134.94 -94.75 128.12 -83 120 C-81.18 118.76 -79.37 117.52 -77.5 116.25 C-70.21 110.62 -63.62 104.4 -57 98 C-55.84 96.88 -54.68 95.76 -53.48 94.61 C-49.06 90.27 -45.2 86.34 -42 81 C-40.68 79.68 -39.36 78.36 -38 77 C-37.84 76.5 -37.84 76.5 -37 74 C-35.35 73.01 -33.7 72.02 -32 71 C-12.65 54.9 -3.31 35.25 -0.46 10.31 C-0.23 6.88 -0.1 3.44 0 0 Z "
       fill="#EDAF69"
       transform="translate(1181,554)" />
    <g
       id="eye-sockets">
      <path
         id="eye-socket-right"
         d="M0 0 C17.28 13.8 25.88 31.18 29 53 C29.86 71.94 24.94 88.29 13 103 C0.57 115.77 -13.8 121.49 -31.44 122.38 C-50.94 121.41 -66.47 115.21 -80 101 C-93.3 82.68 -97.6 62.76 -94.35 40.54 C-91.21 26.62 -84.94 16.08 -75 6 C-73.99 4.97 -72.98 3.94 -71.94 2.88 C-49.53 -13.48 -23.71 -14.99 0 0 Z "
         fill="#8F513B"
         transform="translate(905,453)" />
      <path
         id="eye-socket-left"
         d="M0 0 C14.46 13.09 23.11 30.13 24.29 49.78 C24.62 69.28 20.35 84.99 9 101 C-3.17 113.17 -16.05 120.03 -33.5 120.5 C-48.48 120.08 -59.85 115.08 -71.19 105.44 C-84.7 89.72 -88.79 71.39 -88 51 C-85.47 31.26 -78.27 14.31 -63 1 C-42.46 -12.87 -20.66 -14.31 0 0 Z "
         fill="#8E503A"
         transform="translate(598,440)" />
    </g>
    <path
       id="cheek-right"
       d="M0 0 C0.91 -0.01 0.91 -0.01 5.54 -0.06 C30.67 -0.13 30.67 -0.13 41.44 5.25 C41.77 7.56 42.1 9.87 42.44 12.25 C30.15 22.08 8.29 17.14 -6.75 16.75 C-8.67 16.7 -10.58 16.65 -12.56 16.61 C-17.23 16.49 -21.9 16.37 -26.56 16.25 C-26.56 16.91 -26.56 17.57 -26.56 18.25 C-25.9 18.41 -25.9 18.41 -22.56 19.25 C-14.82 24.56 -10.82 32.23 -8.56 41.25 C-8.56 43.56 -8.56 45.87 -8.56 48.25 C-9.73 47.97 -10.9 47.7 -12.11 47.41 C-12.87 47.23 -12.87 47.23 -16.75 46.31 C-18.27 45.95 -19.79 45.59 -21.36 45.22 C-30.61 43.08 -36.85 41.9 -45.56 46.25 C-45.4 47.4 -45.4 47.4 -44.56 53.25 C-37.08 58.1 -27.97 60.45 -19.56 63.25 C-23.62 71.36 -31.77 75.27 -40.06 78.12 C-59.43 83.61 -78.16 84.67 -97 76.44 C-106.48 71 -113 64.95 -116.56 54.25 C-117.34 41.43 -112.68 34.01 -104.56 24.25 C-89.1 10.01 -71.85 6.77 -51.56 7.25 C-48.56 7.25 -48.56 7.25 -44.56 4.25 C-29.5 0.84 -15.37 0.04 0 0 Z "
       fill="#FFB0A0"
       transform="translate(1033.5625,532.75)" />
    <path
       id="cheek-left"
       d="M0 0 C9.27 7.11 17.11 15.44 20 27 C20.41 37.26 20.03 43.74 14.06 52.12 C1.98 63.65 -12.92 65.61 -28.89 65.35 C-42.02 64.45 -54.7 59.3 -64 50 C-61 48 -61 48 -57 46 C-56 42 -56 42 -57 38 C-62.67 36.58 -68.18 36.94 -74 37 C-73.12 23.15 -73.12 23.15 -70 17 C-67.36 17 -64.72 17 -62 17 C-59.69 16.34 -57.38 15.68 -55 15 C-54 13 -54 13 -54 7 C-57.58 4.36 -60.78 2.41 -65 1 C-64 -2 -64 -2 -60.25 -4.44 C-38.8 -14.91 -19.99 -11.57 0 0 Z "
       fill="#FFB0A0"
       transform="translate(498,525)" />
    <g
       id="paws">
      <path
         id="paw-mid"
         d="M0 0 C0.16 0.5 0.16 0.5 1 3 C-2 7 -2 7 -7 8 C-7.99 8.99 -8.98 9.98 -10 11 C-12.99 13.01 -15.99 15.01 -19 17 C-23.79 20.83 -27.02 24.06 -29 30 C-29.46 36.94 -29.36 41.44 -25 47 C-13.46 56.03 0.1 56.66 14.12 56.5 C15.76 56.49 17.39 56.49 19.07 56.48 C30.52 56.32 40.89 54.87 52 52 C52.33 52.66 52.66 53.32 53 54 C27.31 64.58 -4.68 73.58 -31.88 63.12 C-39.99 58.95 -45.07 54.78 -48 46 C-48.71 38.29 -46.76 33.69 -43 27 C-42.67 26.34 -42.34 25.68 -42 25 C-49.15 25.61 -53.17 27.03 -58.19 32.44 C-61 36 -61 36 -63 40 C-82.34 46.79 -106.86 47.78 -127 45 C-125.21 41.52 -123.42 38.03 -121.63 34.55 C-120 31 -120 31 -119 26 C-118.67 26 -118.34 26 -118 26 C-117.84 24.51 -117.84 24.51 -117 17 C-115.71 16.99 -115.71 16.99 -109.2 16.92 C-75.83 16.44 -43.93 13.66 -13 0 C-7 -1 -7 -1 0 0 Z "
         fill="#F5D39C"
         transform="translate(1059,829)" />
      <path
         id="paw-right"
         d="M0 0 C5 5 5 5 6 10 C2.96 16.58 -0.81 22.19 -5.25 27.88 C-10 34 -10 34 -12 39 C-33.28 63.31 -64.23 81.65 -96 88 C-98 87 -98 87 -100 82 C-105.96 76.84 -111.46 73.51 -119 71 C-119 70.34 -119 69.68 -119 69 C-121.97 68.67 -124.94 68.34 -128 68 C-128 67.01 -128 66.02 -128 65 C-124.28 64.28 -120.55 63.57 -116.81 62.93 C-102.26 60.12 -88.77 54.88 -75.28 48.86 C-71 47 -71 47 -67 46 C-67 45.34 -67 44.68 -67 44 C-62.08 41.38 -57.18 39.07 -52 37 C-52 36.34 -52 35.68 -52 35 C-50.02 33.68 -48.04 32.36 -46 31 C-44.05 29.15 -42.15 27.25 -40.3 25.32 C-39.23 24.22 -38.17 23.13 -37.07 22.01 C-34.87 19.72 -32.67 17.43 -30.47 15.13 C-21.27 5.71 -13.51 0 0 0 Z "
         fill="#F9DEA9"
         transform="translate(1235,779)" />
      <path
         id="paw-left"
         d="M0 0 C13.04 -1.32 23.9 4.09 34.75 10.75 C65.12 28.86 94.98 36.9 130.27 28.79 C133.53 27.93 136.78 27.04 140.02 26.12 C144 25 144 25 149 24 C147.61 29.58 144.31 31.23 140 35 C136.02 39.48 132.61 43.43 130.42 49.05 C128.68 53.42 127.25 56.58 124 60 C117.07 61.17 110.79 59.51 104 58 C102.97 57.82 102.97 57.82 97.77 56.91 C86.39 54.85 75.52 52.19 64.64 48.23 C61 47 61 47 55 46 C55.04 48.25 55.08 50.5 55.12 52.81 C54.98 61.43 54.23 61.46 49 68 C48.13 69.13 47.27 70.27 46.38 71.44 C40.7 77.42 35.12 80.65 27 82 C21 77 21 77 20 71 C20.16 70.5 20.16 70.5 21 68 C24.3 66.9 27.64 65.89 31 65 C29.7 65.32 28.41 65.65 27.07 65.98 C9.81 69.45 -7.17 66.44 -23 59 C-23.33 58.34 -23.66 57.68 -24 57 C-23.4 57.21 -23.4 57.21 -20.38 58.25 C-19.49 58.54 -19.49 58.54 -15 60 C-13.02 60.72 -11.04 61.44 -9 62.19 C2.73 65.51 17.39 66.29 28.95 62.28 C35.22 58.75 37.72 55.83 40 49 C40 38.36 34.62 30.94 28 23 C19.76 16.79 11.5 12.05 2.14 7.73 C-1 6 -1 6 -2 3 C-1.34 2.01 -0.68 1.02 0 0 Z "
         fill="#F2CA90"
         transform="translate(641,803)" />
    </g>
    <g class="ear-anim">
<path
       id="patch-ear-right"
       style="display:inline"
       d="M -23.972656 -5.0566406 C -88.994043 -6.4298438 -210.81875 60.1425 -247 89 C -244.81 91.19 -244.80969 91.189219 -235.92969 95.699219 C -222.82969 102.33922 -209.49 108.51 -199 119 L -199.94141 120.88086 L -191.43555 126.16602 L -173.75781 144.55078 L -157.49414 157.27734 L -128.50195 179.19727 L -103.04688 205.36133 L -81.833984 223.03906 L -55.316406 252.73633 L -37.638672 273.24414 L -34.191406 274.39258 C -43.023889 261.8515 -56.32579 244.8368 -55.25 244.25 L -36 233.75 C -36 233.75 -25.29576 245.83107 -20.625 253.125 C -15.610601 260.95556 -7.25 279 -7.25 279 L -3 277 L 0 274 C 37.02 218.47 26.409453 143.71977 20.689453 80.259766 C 20.109453 75.029766 20.11 75.03 20 74 C 17.42 49.67 16.24 19.48 0 0 C -6.555 -3.2775 -14.683887 -4.8604687 -23.972656 -5.0566406 z "
       transform="translate(1163,139)"
       fill="#EBAC66" />
<path
       id="patch-ear-left"
       style="display:inline"
       d="M -81.509766,-26.400391 C -87.481377,-26.148723 -92.783125,-24.810625 -97,-22 -117.8,5.29 -117.79969,5.2897656 -128.42969,81.759766 -128.61969,83.199766 -128.81,84.6 -129,86 c -2.44,18.12 -3.17078,35.97 -3.30078,54.25 0,2.55 -0.01,5.02 -0.01,7.5 C -132.40055,183 -129,216.04 -116,249 c 2,-1 2,-0.99906 4,-4.03906 15.317028,-25.2648 32.930643,-49.56973 56.488281,-67.82032 h 0.002 l 0.513672,-0.5996 10.181641,-8.72657 L -41,164 c 3.68,-2.99 7.35,-5.99 11,-9 l 1,-3 h 2 c 20.15,-20.15 45.93,-35.94 72,-47 v 3 l 0.777344,0.77734 4.585937,-2.24023 2.427735,-1.30664 L 54,101 57,100 C 73.63,90.96 90.380078,83.300938 108.33008,77.210938 109.58008,76.800938 110.79,76.4 112,76 91.03,44.55 38.180625,18.529687 5.640625,2.6796875 3.720625,1.7696875 1.86,0.88 0,0 -17.184375,-8.19 -55.632783,-27.49095 -81.509766,-26.400391 Z"
       transform="translate(533,136)"
       fill="#ebac66" />
</g>
<g
       id="ears-inner">
      <path
         id="ear-inner-right"
         d="M0 0 C12.78 15.97 10.18 39.46 10.19 58.75 C10.2 60.94 10.21 63.13 10.22 65.39 C10.24 85.69 8.95 105.47 4.88 125.38 C4.73 126.13 4.73 126.13 3.97 129.94 C0.76 145.73 -3.06 161.37 -7 177 C-8.66 183.63 -8.14 188.59 -6 195 C-9 197 -9 197 -13 197 C-13 197.66 -13 198.32 -13 199 C-13.99 199.33 -14.98 199.66 -16 200 C-16.66 199.67 -17.32 199.34 -18 199 C-18 198.34 -18 197.68 -18 197 C-17.34 197 -16.68 197 -16 197 C-16.33 196.01 -16.66 195.02 -17 194 C-17.66 194 -18.32 194 -19 194 C-19.66 194.66 -20.32 195.32 -21 196 C-21.66 195.67 -21.66 195.67 -25 194 C-23.82 195.61 -22.65 197.22 -21.44 198.88 C-20.3 200.57 -19.17 202.26 -18 204 C-18.33 204.66 -18.66 205.32 -19 206 C-19.79 205.02 -20.58 204.04 -21.39 203.03 C-33.57 187.94 -46.03 172.97 -59.75 159.25 C-63 156 -63 156 -66.44 152 C-70.06 147.94 -73.9 144.58 -78 141 C-80.28 138.72 -82.55 136.43 -84.81 134.12 C-90.58 128.31 -96.6 123.11 -103 118 C-104.59 116.56 -106.18 115.11 -107.81 113.62 C-115.08 107.15 -122.66 101.08 -130.6 95.44 C-133.47 93.39 -136.25 91.21 -139 89 C-136.54 79.15 -123.58 71.08 -116 65 C-113.77 63.07 -111.54 61.13 -109.31 59.19 C-84.9 38.22 -33.55 -5.51 0 0 Z "
         fill="#A46D54"
         transform="translate(1143,203)" />
      <path
         id="ear-inner-left"
         d="M0 0 C8.45 6.12 16.27 12.73 23.91 19.82 C26.32 22.04 28.78 24.22 31.25 26.38 C33.83 28.64 36.32 31.01 38.75 33.44 C38.75 34.1 38.75 34.76 38.75 35.44 C39.41 35.44 40.07 35.44 40.75 35.44 C43.14 38.06 45.46 40.73 47.75 43.44 C48.4 44.16 48.4 44.16 51.69 47.81 C54.75 51.44 54.75 51.44 54.75 53.44 C55.25 53.6 55.25 53.6 57.75 54.44 C59.51 56.46 61.18 58.56 62.81 60.69 C63.79 61.96 64.77 63.23 65.78 64.55 C66.76 65.83 67.74 67.11 68.75 68.44 C69.62 69.54 70.49 70.63 71.38 71.77 C87.75 92.57 87.75 92.57 87.75 98.44 C88.71 97.88 89.67 97.32 90.65 96.75 C115.99 82.23 115.99 82.23 126.75 80.44 C127.08 80.77 127.41 81.1 127.75 81.44 C128.08 81.44 128.41 81.44 128.75 81.44 C128.75 83.09 128.75 84.74 128.75 86.44 C124.11 88.94 119.58 91.1 114.75 93.19 C111.98 94.43 109.21 95.68 106.45 96.93 C105.78 97.23 105.78 97.23 102.4 98.75 C91.19 103.93 80.9 110.44 70.75 117.44 C69.15 118.54 67.56 119.64 65.91 120.77 C57.29 126.75 48.93 132.87 40.75 139.44 C38.77 140.43 36.79 141.42 34.75 142.44 C31.37 145.38 28.04 148.39 24.75 151.44 C23.43 152.57 22.11 153.71 20.75 154.88 C15.88 159.21 11.33 163.8 6.75 168.44 C-10.25 185.44 -10.25 185.44 -15.25 189.44 C-18.25 188.44 -18.25 188.44 -20.27 184.57 C-35.2 145.8 -33.5 94.1 -28.25 53.44 C-27.98 51.35 -27.71 49.27 -27.44 47.12 C-21.99 8.67 -21.99 8.67 -15.25 -2.56 C-8.95 -3.82 -5.51 -3.32 0 0 Z "
         fill="#A36C53"
         transform="translate(456.25,158.5625)" />
    </g>
    <g
       id="eye-pupils">
      <path
         id="eye-pupil-right"
         d="M0 0 C17.33 13.79 25.21 30.32 29 52 C30.2 71.7 25.18 88.01 12.81 103.5 C-0.26 115.87 -14.07 121.61 -31.94 122.31 C-52.11 121.62 -67.02 114.44 -81 100 C-93.04 82.61 -96.22 65.8 -95 45 C-91.22 25.06 -82.79 11.63 -67 -1 C-44.12 -14.37 -22.61 -12.87 0 0 Z "
         fill="#583629"
         transform="translate(905,453)" />
      <path
         id="eye-pupil-left"
         d="M0 0 C15.25 9.15 23.35 22.98 28.69 39.56 C32.58 60.23 31.01 79.68 20.31 98.19 C10.11 112.54 -1.58 120.39 -18.69 124.19 C-37.53 124.99 -50.44 121.91 -64.88 109.62 C-78.59 93.66 -82.26 74.76 -81.69 54.19 C-79.57 34.52 -71.27 18.37 -56.69 5.19 C-38.75 -6.92 -19.79 -9.78 0 0 Z "
         fill="#543226"
         transform="translate(591.6875,435.8125)" />
    </g>
    <g
       id="eye-highlights">
      <ellipse
         id="eye-highlight-right-main"
         cx="888"
         cy="490"
         rx="11"
         ry="9"
         fill="#FFF" />
      <circle
         id="eye-highlight-right-sub"
         cx="858"
         cy="518"
         r="3.5"
         fill="#FFF"
         opacity="0.5" />
      <ellipse
         id="eye-highlight-left-main"
         cx="580"
         cy="478"
         rx="11"
         ry="9"
         fill="#FFF" />
      <circle
         id="eye-highlight-left-sub"
         cx="550"
         cy="506"
         r="3.5"
         fill="#FFF"
         opacity="0.5" />
    </g>
    <path
       id="mouth"
       d="M0 0 C6 1 6 1 9 5 C9.99 7.97 10.98 10.94 12 14 C17.01 20.77 21.79 24.26 30 27 C39.68 27 44.9 24.99 51.94 18.31 C53.28 16.89 54.62 15.47 56 14 C58 13 58 13 64 13 C68 16 68 16 69 21 C64.54 29.93 61.04 34.03 52.12 38.38 C39.46 42.39 28.73 41.12 16.62 35.69 C10 32 10 32 3 27 C-2 28 -2 28 -6.5 31.31 C-15.06 37.05 -21.93 39.19 -32.25 38.56 C-43.25 36.02 -49.04 31.88 -56 23 C-59 16 -59 16 -59 8 C-56 3 -56 3 -55 2 C-53.02 2 -51.04 2 -49 2 C-46 6 -46 6 -44.12 11.94 C-41.76 18.68 -39.44 21.78 -33 25 C-24.68 25.59 -21.79 24.89 -14 21 C-8.31 15.5 -5.74 10.35 -3 3 C-2.01 2.01 -1.02 1.02 0 0 Z "
       fill="#542819"
       transform="translate(707,529)" />
    <g
       id="whiskers-right">
      <path
         id="whisker-right-upper"
         d="M0 0 C1 1 1 1 1 7 C-12.32 17.65 -40.02 11.89 -56.5 11.62 C-58.99 11.59 -61.47 11.56 -64.04 11.53 C-66.41 11.49 -68.78 11.45 -71.22 11.41 C-73.36 11.38 -75.51 11.35 -77.72 11.32 C-83 11 -83 11 -88 9 C-88.99 7.35 -89.98 5.7 -91 4 C-73.38 -13.62 -21.85 -8.86 0 0 Z "
         fill="#632F1B"
         transform="translate(1075,538)" />
      <path
         id="whisker-right-lower"
         d="M0 0 C21.84 7.29 21.84 7.29 28.84 14.28 C28.84 15.93 28.84 17.58 28.84 19.28 C24.84 22.28 24.84 22.28 15.84 22.28 C8.98 20.26 2.24 18.13 -4.54 15.84 C-5.49 15.53 -5.49 15.53 -10.33 13.91 C-14.17 12.63 -18 11.35 -21.83 10.06 C-26.48 8.51 -31.15 6.99 -35.82 5.49 C-38.2 4.72 -40.58 3.95 -43.04 3.16 C-45.1 2.49 -47.15 1.83 -49.28 1.15 C-54.16 -0.72 -54.16 -0.72 -59.16 -4.72 C-58.83 -6.37 -58.5 -8.02 -58.16 -9.72 C-42.49 -17.55 -15.31 -4.78 0 0 Z "
         fill="#642E1A"
         transform="translate(1047.16015625,588.71875)" />
    </g></g>
</svg>
